<svg xmlns="http://www.w3.org/2000/svg" width="805" height="600"><rect width="805" height="600" x="0" y="0" fill="#FFFFFF" id="background"/><g transform="translate(20,20)" id="viz"><g id="nodes"><g transform="translate(383.5,281)"><path id="p_944.5" d="M-5.143516556418883e-14,280A280,280,0,1,1,5.143516556418883e-14,-280A280,280,0,1,1,-5.143516556418883e-14,280Z" fill="none" stroke="#ccc"/></g><g transform="translate(365.9917111288538,308.5067201552673)" id="http://www.wikidata.org/entity/Q827106"><path id="p_693.25399121799" d="M-3.445340465884331e-15,18.755559933868884A18.755559933868884,18.755559933868884,0,1,1,3.445340465884331e-15,-18.755559933868884A18.755559933868884,18.755559933868884,0,1,1,-3.445340465884331e-15,18.755559933868884Z" fill="none" stroke="#ccc"/></g><g transform="translate(402.0465090094094,308.5067201552673)" id="http://www.wikidata.org/entity/Q2389686"><path id="p_726.0145538836601" d="M-2.84019927415214e-15,15.46132471898345A15.46132471898345,15.46132471898345,0,1,1,2.84019927415214e-15,-15.46132471898345A15.46132471898345,15.46132471898345,0,1,1,-2.84019927415214e-15,15.46132471898345Z" fill="none" stroke="#ccc"/></g><g transform="translate(387.4803072766935,341.6850942847127)" id="http://www.wikidata.org/entity/Q5042347"><path id="p_748.1012121560369" d="M-3.478451975096239e-15,18.93581059463062A18.93581059463062,18.93581059463062,0,1,1,3.478451975096239e-15,-18.93581059463062A18.93581059463062,18.93581059463062,0,1,1,-3.478451975096239e-15,18.93581059463062Z" fill="none" stroke="#ccc"/></g><g transform="translate(386.754014156386,284.7110909332606)" id="http://www.wikidata.org/entity/Q5741182"><path id="p_682.4517712101975" d="M-2.0182178246749943e-15,10.986666120550874A10.986666120550874,10.986666120550874,0,1,1,2.0182178246749943e-15,-10.986666120550874A10.986666120550874,10.986666120550874,0,1,1,-2.0182178246749943e-15,10.986666120550874Z" fill="none" stroke="#ccc"/></g><g transform="translate(359.6557948143857,270.8115248302277)" id="http://www.wikidata.org/entity/Q315732"><path id="p_648.0978126055778" d="M-3.2386690158052704e-15,17.630492960964517A17.630492960964517,17.630492960964517,0,1,1,3.2386690158052704e-15,-17.630492960964517A17.630492960964517,17.630492960964517,0,1,1,-3.2386690158052704e-15,17.630492960964517Z" fill="none" stroke="#ccc"/></g><g transform="translate(355.3608122440713,338.7652264287915)" id="http://www.wikidata.org/entity/Q2700562"><path id="p_705.6042541634862" d="M-2.108513979077319e-15,11.47821549062336A11.47821549062336,11.47821549062336,0,1,1,2.108513979077319e-15,-11.47821549062336A11.47821549062336,11.47821549062336,0,1,1,-2.108513979077319e-15,11.47821549062336Z" fill="none" stroke="#ccc"/></g><g transform="translate(417.42734701231325,275.3595139251864)" id="http://www.wikidata.org/entity/Q1217787"><path id="p_712.0294819819902" d="M-3.534812140401137e-15,19.2426210444906A19.2426210444906,19.2426210444906,0,1,1,3.534812140401137e-15,-19.2426210444906A19.2426210444906,19.2426210444906,0,1,1,-3.534812140401137e-15,19.2426210444906Z" fill="none" stroke="#ccc"/></g><g transform="translate(426.46135390112767,335.05328226080013)" id="http://www.wikidata.org/entity/Q7019633"><path id="p_780.2820671868769" d="M-3.447521149938413e-15,18.76743102494919A18.76743102494919,18.76743102494919,0,1,1,3.447521149938413e-15,-18.76743102494919A18.76743102494919,18.76743102494919,0,1,1,-3.447521149938413e-15,18.76743102494919Z" fill="none" stroke="#ccc"/></g><g transform="translate(329.876129765334,294.0528010973217)" id="http://www.wikidata.org/entity/Q158398"><path id="p_642.2359846044387" d="M-3.362951215003972e-15,18.30705374178302A18.30705374178302,18.30705374178302,0,1,1,3.362951215003972e-15,-18.30705374178302A18.30705374178302,18.30705374178302,0,1,1,-3.362951215003972e-15,18.30705374178302Z" fill="none" stroke="#ccc"/></g><g transform="translate(320.773009187591,334.70059647709013)" id="http://www.wikidata.org/entity/Q127665"><path id="p_676.9832911783022" d="M-3.951265127238347e-15,21.509685513621136A21.509685513621136,21.509685513621136,0,1,1,3.951265127238347e-15,-21.509685513621136A21.509685513621136,21.509685513621136,0,1,1,-3.951265127238347e-15,21.509685513621136Z" fill="none" stroke="#ccc"/></g><g transform="translate(389.39707322639657,248.82152403536756)" id="http://www.wikidata.org/entity/Q2628694"><path id="p_655.7380779624374" d="M-3.2182763944205093e-15,17.51948070067331A17.51948070067331,17.51948070067331,0,1,1,3.2182763944205093e-15,-17.51948070067331A17.51948070067331,17.51948070067331,0,1,1,-3.2182763944205093e-15,17.51948070067331Z" fill="none" stroke="#ccc"/></g><g transform="translate(437.3044027428381,303.1519292526856)" id="http://www.wikidata.org/entity/Q460138"><path id="p_753.5447265073961" d="M-2.4042990667413716e-15,13.08839451187253A13.08839451187253,13.08839451187253,0,1,1,2.4042990667413716e-15,-13.08839451187253A13.08839451187253,13.08839451187253,0,1,1,-2.4042990667413716e-15,13.08839451187253Z" fill="none" stroke="#ccc"/></g><g transform="translate(362.7517013648212,362.52034970710383)" id="http://www.wikidata.org/entity/Q1199439"><path id="p_736.8342487435112" d="M-2.123941255442549e-15,11.56219767158618A11.56219767158618,11.56219767158618,0,1,1,2.123941255442549e-15,-11.56219767158618A11.56219767158618,11.56219767158618,0,1,1,-2.123941255442549e-15,11.56219767158618Z" fill="none" stroke="#ccc"/></g><g transform="translate(414.6553445365301,382.2993151952909)" id="http://www.wikidata.org/entity/Q2033052"><path id="p_825.0480781448047" d="M-5.16067724048515e-15,28.09341841298359A28.09341841298359,28.09341841298359,0,1,1,5.16067724048515e-15,-28.09341841298359A28.09341841298359,28.09341841298359,0,1,1,-5.16067724048515e-15,28.09341841298359Z" fill="none" stroke="#ccc"/></g><g transform="translate(327.41513522261,259.19261810210156)" id="http://www.wikidata.org/entity/Q2682416"><path id="p_601.4097297494558" d="M-2.7190789574426346e-15,14.801976424744199A14.801976424744199,14.801976424744199,0,1,1,2.7190789574426346e-15,-14.801976424744199A14.801976424744199,14.801976424744199,0,1,1,-2.7190789574426346e-15,14.801976424744199Z" fill="none" stroke="#ccc"/></g><g transform="translate(376.5175321985871,379.32413935351786)" id="http://www.wikidata.org/entity/Q4877736"><path id="p_764.1640247171152" d="M-1.528791474735546e-15,8.322353165010245A8.322353165010245,8.322353165010245,0,1,1,1.528791474735546e-15,-8.322353165010245A8.322353165010245,8.322353165010245,0,1,1,-1.528791474735546e-15,8.322353165010245Z" fill="none" stroke="#ccc"/></g><g transform="translate(333.5783053302841,373.9405751861146)" id="http://www.wikidata.org/entity/Q4657304"><path id="p_725.4478070453384" d="M-3.2934903728721267e-15,17.92892652893979A17.92892652893979,17.92892652893979,0,1,1,3.2934903728721267e-15,-17.92892652893979A17.92892652893979,17.92892652893979,0,1,1,-3.2934903728721267e-15,17.92892652893979Z" fill="none" stroke="#ccc"/></g><g transform="translate(352.85086081115094,230.29337395060446)" id="http://www.wikidata.org/entity/Q475693"><path id="p_604.7614425698662" d="M-3.971016652305913e-15,21.617207808110823A21.617207808110823,21.617207808110823,0,1,1,3.971016652305913e-15,-21.617207808110823A21.617207808110823,21.617207808110823,0,1,1,-3.971016652305913e-15,21.617207808110823Z" fill="none" stroke="#ccc"/></g><g transform="translate(451.43173767095334,278.93376350159315)" id="http://www.wikidata.org/entity/Q280928"><path id="p_743.4766887654453" d="M-2.4084860877995882e-15,13.111187592898732A13.111187592898732,13.111187592898732,0,1,1,2.4084860877995882e-15,-13.111187592898732A13.111187592898732,13.111187592898732,0,1,1,-2.4084860877995882e-15,13.111187592898732Z" fill="none" stroke="#ccc"/></g><g transform="translate(451.78194616300635,321.23671210718027)" id="http://www.wikidata.org/entity/Q5716888"><path id="p_781.258244305233" d="M-1.5135873996178246e-15,8.239586035046422A8.239586035046422,8.239586035046422,0,1,1,1.5135873996178246e-15,-8.239586035046422A8.239586035046422,8.239586035046422,0,1,1,-1.5135873996178246e-15,8.239586035046422Z" fill="none" stroke="#ccc"/></g><g transform="translate(438.6591885412733,221.1364265425882)" id="http://www.wikidata.org/entity/Q584509"><path id="p_696.9468101352224" d="M-6.8245638156222116e-15,37.15119505136087A37.15119505136087,37.15119505136087,0,1,1,6.8245638156222116e-15,-37.15119505136087A37.15119505136087,37.15119505136087,0,1,1,-6.8245638156222116e-15,37.15119505136087Z" fill="none" stroke="#ccc"/></g><g transform="translate(248.988907258695,290.7767587497448)" id="http://www.wikidata.org/entity/Q391542"><path id="p_600.5742364434526" d="M-1.1170353171594726e-14,60.80857043501283A60.80857043501283,60.80857043501283,0,1,1,1.1170353171594726e-14,-60.80857043501283A60.80857043501283,60.80857043501283,0,1,1,-1.1170353171594726e-14,60.80857043501283Z" fill="none" stroke="#ccc"/></g><g transform="translate(280.0001862715959,133.32579507196928)" id="http://www.wikidata.org/entity/Q200299"><path id="p_511.15536935343465" d="M-1.7970967033324657e-14,97.82938800986943A97.82938800986943,97.82938800986943,0,1,1,1.7970967033324657e-14,-97.82938800986943A97.82938800986943,97.82938800986943,0,1,1,-1.7970967033324657e-14,97.82938800986943Z" fill="none" stroke="#ccc"/></g><g transform="translate(478.42226623540284,360.7709111889433)" id="http://www.wikidata.org/entity/Q470759"><path id="p_876.5648359253363" d="M-6.865062294309847e-15,37.37165850099022A37.37165850099022,37.37165850099022,0,1,1,6.865062294309847e-15,-37.37165850099022A37.37165850099022,37.37165850099022,0,1,1,-6.865062294309847e-15,37.37165850099022Z" fill="none" stroke="#ccc"/></g><g transform="translate(494.23090496628953,263.1403210472203)" id="http://www.wikidata.org/entity/Q488376"><path id="p_788.0423131115667" d="M-5.634187296150764e-15,30.671087098056926A30.671087098056926,30.671087098056926,0,1,1,5.634187296150764e-15,-30.671087098056926A30.671087098056926,30.671087098056926,0,1,1,-5.634187296150764e-15,30.671087098056926Z" fill="none" stroke="#ccc"/></g><g transform="translate(544.4731887773876,316.1293561930428)" id="http://www.wikidata.org/entity/Q204191"><path id="p_901.1149451258999" d="M-7.44200717642587e-15,40.51240015546951A40.51240015546951,40.51240015546951,0,1,1,7.44200717642587e-15,-40.51240015546951A40.51240015546951,40.51240015546951,0,1,1,-7.44200717642587e-15,40.51240015546951Z" fill="none" stroke="#ccc"/></g><g transform="translate(359.9824440295558,431.7523702566305)" id="http://www.wikidata.org/entity/Q595"><path id="p_835.5241086923894" d="M-8.043962884721665e-15,43.78929440620313A43.78929440620313,43.78929440620313,0,1,1,8.043962884721665e-15,-43.78929440620313A43.78929440620313,43.78929440620313,0,1,1,-8.043962884721665e-15,43.78929440620313Z" fill="none" stroke="#ccc"/></g><g transform="translate(403.26182390292865,164.7959486556143)" id="http://www.wikidata.org/entity/Q748205"><path id="p_595.6060437880867" d="M-5.060535327495586e-15,27.54827122954378A27.54827122954378,27.54827122954378,0,1,1,5.060535327495586e-15,-27.54827122954378A27.54827122954378,27.54827122954378,0,1,1,-5.060535327495586e-15,27.54827122954378Z" fill="none" stroke="#ccc"/></g><g transform="translate(270.58725815920764,399.5180959967729)" id="http://www.wikidata.org/entity/Q834367"><path id="p_718.3244070133823" d="M-8.85769631096011e-15,48.21905285740173A48.21905285740173,48.21905285740173,0,1,1,8.85769631096011e-15,-48.21905285740173A48.21905285740173,48.21905285740173,0,1,1,-8.85769631096011e-15,48.21905285740173Z" fill="none" stroke="#ccc"/></g><g transform="translate(453.73924189882064,417.54352452197884)" id="http://www.wikidata.org/entity/Q646031"><path id="p_893.9794247102767" d="M-4.169308488832432e-15,22.69665828947725A22.69665828947725,22.69665828947725,0,1,1,4.169308488832432e-15,-22.69665828947725A22.69665828947725,22.69665828947725,0,1,1,-4.169308488832432e-15,22.69665828947725Z" fill="none" stroke="#ccc"/></g><g transform="translate(299.3003346280406,470.1368691006921)" id="http://www.wikidata.org/entity/Q766263"><path id="p_795.6131168691159" d="M-4.80843723631941e-15,26.17591314038318A26.17591314038318,26.17591314038318,0,1,1,4.80843723631941e-15,-26.17591314038318A26.17591314038318,26.17591314038318,0,1,1,-4.80843723631941e-15,26.17591314038318Z" fill="none" stroke="#ccc"/></g><g transform="translate(430.4145074815948,473.8868618174271)" id="http://www.wikidata.org/entity/Q1137213"><path id="p_940.7472445924607" d="M-6.694998678035008e-15,36.44587529343877A36.44587529343877,36.44587529343877,0,1,1,6.694998678035008e-15,-36.44587529343877A36.44587529343877,36.44587529343877,0,1,1,-6.694998678035008e-15,36.44587529343877Z" fill="none" stroke="#ccc"/></g><g transform="translate(520.2269626333167,184.29230818906268)" id="http://www.wikidata.org/entity/Q1130084"><path id="p_755.0331838754424" d="M-9.279255289926201e-15,50.513913053063035A50.513913053063035,50.513913053063035,0,1,1,9.279255289926201e-15,-50.513913053063035A50.513913053063035,50.513913053063035,0,1,1,-9.279255289926201e-15,50.513913053063035Z" fill="none" stroke="#ccc"/></g><g transform="translate(508.5886611556417,423.80499003187464)" id="http://www.wikidata.org/entity/Q1199755"><path id="p_963.0647382855732" d="M-5.634187296150764e-15,30.671087098056926A30.671087098056926,30.671087098056926,0,1,1,5.634187296150764e-15,-30.671087098056926A30.671087098056926,30.671087098056926,0,1,1,-5.634187296150764e-15,30.671087098056926Z" fill="none" stroke="#ccc"/></g><g transform="translate(455.28074891774327,114.83961795606203)" id="http://www.wikidata.org/entity/Q24905490"><path id="p_612.8563255950575" d="M-7.850468258471216e-15,42.73595872125208A42.73595872125208,42.73595872125208,0,1,1,7.850468258471216e-15,-42.73595872125208A42.73595872125208,42.73595872125208,0,1,1,-7.850468258471216e-15,42.73595872125208Z" fill="none" stroke="#ccc"/></g><g transform="translate(187.8105479339256,370.33411663573474)" id="http://www.wikidata.org/entity/Q111668106"><path id="p_595.8583564920342" d="M-6.9278928145146834e-15,37.713691922373876A37.713691922373876,37.713691922373876,0,1,1,6.9278928145146834e-15,-37.713691922373876A37.713691922373876,37.713691922373876,0,1,1,-6.9278928145146834e-15,37.713691922373876Z" fill="none" stroke="#ccc"/></g><g transform="translate(560.5141975880333,387.53153286302677)" id="http://www.wikidata.org/entity/Q1275068"><path id="p_978.877278187121" d="M-5.6636634371588744e-15,30.831547736060923A30.831547736060923,30.831547736060923,0,1,1,5.6636634371588744e-15,-30.831547736060923A30.831547736060923,30.831547736060923,0,1,1,-5.6636634371588744e-15,30.831547736060923Z" fill="none" stroke="#ccc"/></g><g transform="translate(583.690434699423,247.16664219596498)" id="http://www.wikidata.org/entity/Q15046091"><path id="p_867.840541309268" d="M-6.793752197375729e-15,36.98346441388001A36.98346441388001,36.98346441388001,0,1,1,6.793752197375729e-15,-36.98346441388001A36.98346441388001,36.98346441388001,0,1,1,-6.793752197375729e-15,36.98346441388001Z" fill="none" stroke="#ccc"/></g><g transform="translate(197.46664018848324,223.18504922325212)" id="http://www.wikidata.org/entity/Q1199406"><path id="p_442.99451802278674" d="M-4.104311031363301e-15,22.34282861105141A22.34282861105141,22.34282861105141,0,1,1,4.104311031363301e-15,-22.34282861105141A22.34282861105141,22.34282861105141,0,1,1,-4.104311031363301e-15,22.34282861105141Z" fill="none" stroke="#ccc"/></g><g transform="translate(484.5562538993255,466.3753896382426)" id="http://www.wikidata.org/entity/Q7918377"><path id="p_967.3081780987178" d="M-3.0083205947157015e-15,16.37653456114972A16.37653456114972,16.37653456114972,0,1,1,3.0083205947157015e-15,-16.37653456114972A16.37653456114972,16.37653456114972,0,1,1,-3.0083205947157015e-15,16.37653456114972Z" fill="none" stroke="#ccc"/></g><g transform="translate(370.3169727754391,507.01123743047486)" id="http://www.wikidata.org/entity/Q85323392"><path id="p_907.6661233360124" d="M-5.5729842311378105e-15,30.33791313009835A30.33791313009835,30.33791313009835,0,1,1,5.5729842311378105e-15,-30.33791313009835A30.33791313009835,30.33791313009835,0,1,1,-5.5729842311378105e-15,30.33791313009835Z" fill="none" stroke="#ccc"/></g><g transform="translate(394.76180924258466,118.45939132995758)" id="http://www.wikidata.org/entity/Q6390950"><path id="p_529.2744250300934" d="M-2.9489294921901245e-15,16.053224457551266A16.053224457551266,16.053224457551266,0,1,1,2.9489294921901245e-15,-16.053224457551266A16.053224457551266,16.053224457551266,0,1,1,-2.9489294921901245e-15,16.053224457551266Z" fill="none" stroke="#ccc"/></g><g transform="translate(322.85093727141145,506.4805826012714)" id="http://www.wikidata.org/entity/Q148204"><path id="p_844.6246952003746" d="M-2.8093107320785394e-15,15.293175327691712A15.293175327691712,15.293175327691712,0,1,1,2.8093107320785394e-15,-15.293175327691712A15.293175327691712,15.293175327691712,0,1,1,-2.8093107320785394e-15,15.293175327691712Z" fill="none" stroke="#ccc"/></g><g transform="translate(255.00571166051174,464.3828102787012)" id="http://www.wikidata.org/entity/Q2300440"><path id="p_736.0414932710117" d="M-3.0591012056669935e-15,16.652971331798735A16.652971331798735,16.652971331798735,0,1,1,3.0591012056669935e-15,-16.652971331798735A16.652971331798735,16.652971331798735,0,1,1,-3.0591012056669935e-15,16.652971331798735Z" fill="none" stroke="#ccc"/></g><g transform="translate(174.10577772688555,316.08817023684566)" id="http://www.wikidata.org/entity/Q2634003"><path id="p_506.592708559902" d="M-3.0124034511126465e-15,16.3987605961708A16.3987605961708,16.3987605961708,0,1,1,3.0124034511126465e-15,-16.3987605961708A16.3987605961708,16.3987605961708,0,1,1,-3.0124034511126465e-15,16.3987605961708Z" fill="none" stroke="#ccc"/></g><g transform="translate(211.93387307412303,414.0363583922048)" id="http://www.wikidata.org/entity/Q1217941"><path id="p_636.3367668100695" d="M-1.9043016490441703e-15,10.366535343741665A10.366535343741665,10.366535343741665,0,1,1,1.9043016490441703e-15,-10.366535343741665A10.366535343741665,10.366535343741665,0,1,1,-1.9043016490441703e-15,10.366535343741665Z" fill="none" stroke="#ccc"/></g><g transform="translate(583.3744351898505,351.3516325582275)" id="http://www.wikidata.org/entity/Q958772"><path id="p_944.853518463508" d="M-1.860382515326083e-15,10.127450715429973A10.127450715429973,10.127450715429973,0,1,1,1.860382515326083e-15,-10.127450715429973A10.127450715429973,10.127450715429973,0,1,1,-1.860382515326083e-15,10.127450715429973Z" fill="none" stroke="#ccc"/></g><g transform="translate(561.1305321491616,443.96561142459495)" id="http://www.wikidata.org/entity/Q169087"><path id="p_1028.8641266643122" d="M-4.366107662105611e-15,23.767983090555663A23.767983090555663,23.767983090555663,0,1,1,4.366107662105611e-15,-23.767983090555663A23.767983090555663,23.767983090555663,0,1,1,-4.366107662105611e-15,23.767983090555663Z" fill="none" stroke="#ccc"/></g><g transform="translate(526.9057412314748,485.6122408881316)" id="http://www.wikidata.org/entity/Q156911"><path id="p_1040.8173551080904" d="M-5.198510482233601e-15,28.299372988484013A28.299372988484013,28.299372988484013,0,1,1,5.198510482233601e-15,-28.299372988484013A28.299372988484013,28.299372988484013,0,1,1,-5.198510482233601e-15,28.299372988484013Z" fill="none" stroke="#ccc"/></g><g transform="translate(478.6189188893506,501.2165758921054)" id="http://www.wikidata.org/entity/Q1304320"><path id="p_996.9645075843026" d="M-3.1465486052340303e-15,17.129012802846667A17.129012802846667,17.129012802846667,0,1,1,3.1465486052340303e-15,-17.129012802846667A17.129012802846667,17.129012802846667,0,1,1,-3.1465486052340303e-15,17.129012802846667Z" fill="none" stroke="#ccc"/></g><g transform="translate(170.52170751286658,260.17006560365326)" id="http://www.wikidata.org/entity/Q201293"><path id="p_452.27041101079965" d="M-3.963931474078435e-15,21.578637894279822A21.578637894279822,21.578637894279822,0,1,1,3.963931474078435e-15,-21.578637894279822A21.578637894279822,21.578637894279822,0,1,1,-3.963931474078435e-15,21.578637894279822Z" fill="none" stroke="#ccc"/></g><g transform="translate(413.2357303066628,522.794362894598)" id="http://www.wikidata.org/entity/Q1755864"><path id="p_949.58310673078" d="M-2.4896481956589553e-15,13.553013529519125A13.553013529519125,13.553013529519125,0,1,1,2.4896481956589553e-15,-13.553013529519125A13.553013529519125,13.553013529519125,0,1,1,-2.4896481956589553e-15,13.553013529519125Z" fill="none" stroke="#ccc"/></g><g transform="translate(600.9246844725997,299.68100298517425)" id="http://www.wikidata.org/entity/Q1056853"><path id="p_917.054351017039" d="M-3.021570476715859e-15,16.44866355926511A16.44866355926511,16.44866355926511,0,1,1,3.021570476715859e-15,-16.44866355926511A16.44866355926511,16.44866355926511,0,1,1,-3.021570476715859e-15,16.44866355926511Z" fill="none" stroke="#ccc"/></g><g transform="translate(365.9917111288538,308.5067201552673)" id="The Wind That Shakes the Barley"><path id="p_691.4160779902867" d="M-3.1077212831717148e-15,16.917646706165574A16.917646706165574,16.917646706165574,0,1,1,3.1077212831717148e-15,-16.917646706165574A16.917646706165574,16.917646706165574,0,1,1,-3.1077212831717148e-15,16.917646706165574Z" fill="#ff0000" stroke="none"/></g><g transform="translate(402.0465090094094,308.5067201552673)" id="El aura"><path id="p_724.1766406559569" d="M-2.502580091439524e-15,13.623411491280141A13.623411491280141,13.623411491280141,0,1,1,2.502580091439524e-15,-13.623411491280141A13.623411491280141,13.623411491280141,0,1,1,-2.502580091439524e-15,13.623411491280141Z" fill="#000000" stroke="none"/></g><g transform="translate(387.4803072766935,341.6850942847127)" id="The Rover"><path id="p_746.2632989283336" d="M-3.140832792383623e-15,17.09789736692731A17.09789736692731,17.09789736692731,0,1,1,3.140832792383623e-15,-17.09789736692731A17.09789736692731,17.09789736692731,0,1,1,-3.140832792383623e-15,17.09789736692731Z" fill="#1000ff" stroke="none"/></g><g transform="translate(386.754014156386,284.7110909332606)" id="Hermano"><path id="p_680.6138579824942" d="M-1.6805986419623783e-15,9.148752892847563A9.148752892847563,9.148752892847563,0,1,1,1.6805986419623783e-15,-9.148752892847563A9.148752892847563,9.148752892847563,0,1,1,-1.6805986419623783e-15,9.148752892847563Z" fill="#417505" stroke="none"/></g><g transform="translate(359.6557948143857,270.8115248302277)" id="The Producers"><path id="p_646.2598993778745" d="M-2.9010498330926547e-15,15.792579733261208A15.792579733261208,15.792579733261208,0,1,1,2.9010498330926547e-15,-15.792579733261208A15.792579733261208,15.792579733261208,0,1,1,-2.9010498330926547e-15,15.792579733261208Z" fill="#000000" stroke="none"/></g><g transform="translate(355.3608122440713,338.7652264287915)" id="Head On"><path id="p_703.7663409357829" d="M-1.7708947963647033e-15,9.640302262920049A9.640302262920049,9.640302262920049,0,1,1,1.7708947963647033e-15,-9.640302262920049A9.640302262920049,9.640302262920049,0,1,1,-1.7708947963647033e-15,9.640302262920049Z" fill="#000000" stroke="none"/></g><g transform="translate(417.42734701231325,275.3595139251864)" id="The Time Machine"><path id="p_710.1915687542869" d="M-3.197192957688521e-15,17.40470781678729A17.40470781678729,17.40470781678729,0,1,1,3.197192957688521e-15,-17.40470781678729A17.40470781678729,17.40470781678729,0,1,1,-3.197192957688521e-15,17.40470781678729Z" fill="#4a90e2" stroke="none"/></g><g transform="translate(426.46135390112767,335.05328226080013)" id="Newsfront"><path id="p_778.4441539591737" d="M-3.109901967225798e-15,16.929517797245882A16.929517797245882,16.929517797245882,0,1,1,3.109901967225798e-15,-16.929517797245882A16.929517797245882,16.929517797245882,0,1,1,-3.109901967225798e-15,16.929517797245882Z" fill="#4a90e2" stroke="none"/></g><g transform="translate(329.876129765334,294.0528010973217)" id="Iron Sky"><path id="p_640.3980713767355" d="M-3.0253320322913564e-15,16.469140514079708A16.469140514079708,16.469140514079708,0,1,1,3.0253320322913564e-15,-16.469140514079708A16.469140514079708,16.469140514079708,0,1,1,-3.0253320322913564e-15,16.469140514079708Z" fill="#15ff00" stroke="none"/></g><g transform="translate(320.773009187591,334.70059647709013)" id="Flirting"><path id="p_675.145377950599" d="M-3.613645944525732e-15,19.67177228591783A19.67177228591783,19.67177228591783,0,1,1,3.613645944525732e-15,-19.67177228591783A19.67177228591783,19.67177228591783,0,1,1,-3.613645944525732e-15,19.67177228591783Z" fill="#ff0000" stroke="none"/></g><g transform="translate(389.39707322639657,248.82152403536756)" id="Weekend"><path id="p_653.9001647347341" d="M-2.880657211707893e-15,15.681567472969999A15.681567472969999,15.681567472969999,0,1,1,2.880657211707893e-15,-15.681567472969999A15.681567472969999,15.681567472969999,0,1,1,-2.880657211707893e-15,15.681567472969999Z" fill="#000000" stroke="none"/></g><g transform="translate(437.3044027428381,303.1519292526856)" id="La Patrouille de l'aube"><path id="p_751.7068132796929" d="M-2.066679884028756e-15,11.25048128416922A11.25048128416922,11.25048128416922,0,1,1,2.066679884028756e-15,-11.25048128416922A11.25048128416922,11.25048128416922,0,1,1,-2.066679884028756e-15,11.25048128416922Z" fill="#1000ff" stroke="none"/></g><g transform="translate(362.7517013648212,362.52034970710383)" id="The Last Tycoon"><path id="p_734.9963355158079" d="M-1.786322072729933e-15,9.724284443882869A9.724284443882869,9.724284443882869,0,1,1,1.786322072729933e-15,-9.724284443882869A9.724284443882869,9.724284443882869,0,1,1,-1.786322072729933e-15,9.724284443882869Z" fill="#cccccc" stroke="none"/></g><g transform="translate(414.6553445365301,382.2993151952909)" id="Oscar et Lucinda"><path id="p_823.2101649171013" d="M-4.823058057772533e-15,26.255505185280274A26.255505185280274,26.255505185280274,0,1,1,4.823058057772533e-15,-26.255505185280274A26.255505185280274,26.255505185280274,0,1,1,-4.823058057772533e-15,26.255505185280274Z" fill="#ff0000" stroke="none"/></g><g transform="translate(327.41513522261,259.19261810210156)" id="The Lighthorsemen"><path id="p_599.5718165217525" d="M-2.381459774730019e-15,12.96406319704089A12.96406319704089,12.96406319704089,0,1,1,2.381459774730019e-15,-12.96406319704089A12.96406319704089,12.96406319704089,0,1,1,-2.381459774730019e-15,12.96406319704089Z" fill="#f8e71c" stroke="none"/></g><g transform="translate(376.5175321985871,379.32413935351786)" id="Beautiful Kate"><path id="p_762.3261114894119" d="M-1.1911722920229298e-15,6.4844399373069335A6.4844399373069335,6.4844399373069335,0,1,1,1.1911722920229298e-15,-6.4844399373069335A6.4844399373069335,6.4844399373069335,0,1,1,-1.1911722920229298e-15,6.4844399373069335Z" fill="#4a90e2" stroke="none"/></g><g transform="translate(333.5783053302841,373.9405751861146)" id="Kapringen"><path id="p_723.6098938176351" d="M-2.9558711901595107e-15,16.09101330123648A16.09101330123648,16.09101330123648,0,1,1,2.9558711901595107e-15,-16.09101330123648A16.09101330123648,16.09101330123648,0,1,1,-2.9558711901595107e-15,16.09101330123648Z" fill="#1000ff" stroke="none"/></g><g transform="translate(352.85086081115094,230.29337395060446)" id="올드보이"><path id="p_602.9235293421629" d="M-3.633397469593297e-15,19.779294580407512A19.779294580407512,19.779294580407512,0,1,1,3.633397469593297e-15,-19.779294580407512A19.779294580407512,19.779294580407512,0,1,1,-3.633397469593297e-15,19.779294580407512Z" fill="#1000ff" stroke="none"/></g><g transform="translate(451.43173767095334,278.93376350159315)" id="Candy"><path id="p_741.6387755377419" d="M-2.0708669050869725e-15,11.273274365195423A11.273274365195423,11.273274365195423,0,1,1,2.0708669050869725e-15,-11.273274365195423A11.273274365195423,11.273274365195423,0,1,1,-2.0708669050869725e-15,11.273274365195423Z" fill="#ff0000" stroke="none"/></g><g transform="translate(451.78194616300635,321.23671210718027)" id="Bajo la sal"><path id="p_779.4203310775297" d="M-1.1759682169052085e-15,6.40167280734311A6.40167280734311,6.40167280734311,0,1,1,1.1759682169052085e-15,-6.40167280734311A6.40167280734311,6.40167280734311,0,1,1,-1.1759682169052085e-15,6.40167280734311Z" fill="#1000ff" stroke="none"/></g><g transform="translate(438.6591885412733,221.1364265425882)" id="Limelight"><path id="p_695.1088969075191" d="M-6.486944632909595e-15,35.313281823657555A35.313281823657555,35.313281823657555,0,1,1,6.486944632909595e-15,-35.313281823657555A35.313281823657555,35.313281823657555,0,1,1,-6.486944632909595e-15,35.313281823657555Z" fill="#7f7f7f" stroke="none"/></g><g transform="translate(248.988907258695,290.7767587497448)" id="Ned Kelly"><path id="p_598.7363232157493" d="M-1.0832733988882111e-14,58.97065720730953A58.97065720730953,58.97065720730953,0,1,1,1.0832733988882111e-14,-58.97065720730953A58.97065720730953,58.97065720730953,0,1,1,-1.0832733988882111e-14,58.97065720730953Z" fill="#f8e71c" stroke="none"/></g><g transform="translate(280.0001862715959,133.32579507196928)" id="All About Eve"><path id="p_509.3174561257314" d="M-1.7633347850612044e-14,95.99147478216614A95.99147478216614,95.99147478216614,0,1,1,1.7633347850612044e-14,-95.99147478216614A95.99147478216614,95.99147478216614,0,1,1,-1.7633347850612044e-14,95.99147478216614Z" fill="#ff04cd" stroke="none"/></g><g transform="translate(478.42226623540284,360.7709111889433)" id="功夫"><path id="p_874.726922697633" d="M-6.527443111597231e-15,35.53374527328691A35.53374527328691,35.53374527328691,0,1,1,6.527443111597231e-15,-35.53374527328691A35.53374527328691,35.53374527328691,0,1,1,-6.527443111597231e-15,35.53374527328691Z" fill="#ff7722" stroke="none"/></g><g transform="translate(494.23090496628953,263.1403210472203)" id="Anatomy of a Murder"><path id="p_786.2043998838634" d="M-5.296568113438147e-15,28.833173870353612A28.833173870353612,28.833173870353612,0,1,1,5.296568113438147e-15,-28.833173870353612A28.833173870353612,28.833173870353612,0,1,1,-5.296568113438147e-15,28.833173870353612Z" fill="#cccccc" stroke="none"/></g><g transform="translate(544.4731887773876,316.1293561930428)" id="It's a Wonderful Life"><path id="p_899.2770318981966" d="M-7.1043879937132525e-15,38.67448692776619A38.67448692776619,38.67448692776619,0,1,1,7.1043879937132525e-15,-38.67448692776619A38.67448692776619,38.67448692776619,0,1,1,-7.1043879937132525e-15,38.67448692776619Z" fill="#d0021b" stroke="none"/></g><g transform="translate(359.9824440295558,431.7523702566305)" id="Intouchables"><path id="p_833.6861954646861" d="M-7.70634370200905e-15,41.95138117849983A41.95138117849983,41.95138117849983,0,1,1,7.70634370200905e-15,-41.95138117849983A41.95138117849983,41.95138117849983,0,1,1,-7.70634370200905e-15,41.95138117849983Z" fill="#9b9b9b" stroke="none"/></g><g transform="translate(403.26182390292865,164.7959486556143)" id="This Is England"><path id="p_593.7681305603835" d="M-4.72291614478297e-15,25.71035800184047A25.71035800184047,25.71035800184047,0,1,1,4.72291614478297e-15,-25.71035800184047A25.71035800184047,25.71035800184047,0,1,1,-4.72291614478297e-15,25.71035800184047Z" fill="#5d0f0f" stroke="none"/></g><g transform="translate(270.58725815920764,399.5180959967729)" id="Looking for Alibrandi"><path id="p_716.4864937856789" d="M-8.520077128247493e-15,46.381139629698424A46.381139629698424,46.381139629698424,0,1,1,8.520077128247493e-15,-46.381139629698424A46.381139629698424,46.381139629698424,0,1,1,-8.520077128247493e-15,46.381139629698424Z" fill="#4a90e2" stroke="none"/></g><g transform="translate(453.73924189882064,417.54352452197884)" id="The Last Temptation of Christ"><path id="p_892.1415114825734" d="M-3.831689306119817e-15,20.858745061773938A20.858745061773938,20.858745061773938,0,1,1,3.831689306119817e-15,-20.858745061773938A20.858745061773938,20.858745061773938,0,1,1,-3.831689306119817e-15,20.858745061773938Z" fill="#4a90e2" stroke="none"/></g><g transform="translate(299.3003346280406,470.1368691006921)" id="Chungking Express"><path id="p_793.7752036414125" d="M-4.4708180536067934e-15,24.337999912679866A24.337999912679866,24.337999912679866,0,1,1,4.4708180536067934e-15,-24.337999912679866A24.337999912679866,24.337999912679866,0,1,1,-4.4708180536067934e-15,24.337999912679866Z" fill="#ff0000" stroke="none"/></g><g transform="translate(430.4145074815948,473.8868618174271)" id="Runaway Train"><path id="p_938.9093313647573" d="M-6.357379495322392e-15,34.60796206573546A34.60796206573546,34.60796206573546,0,1,1,6.357379495322392e-15,-34.60796206573546A34.60796206573546,34.60796206573546,0,1,1,-6.357379495322392e-15,34.60796206573546Z" fill="#1000ff" stroke="none"/></g><g transform="translate(520.2269626333167,184.29230818906268)" id="The Hustler"><path id="p_753.1952706477392" d="M-8.941636107213587e-15,48.67599982535973A48.67599982535973,48.67599982535973,0,1,1,8.941636107213587e-15,-48.67599982535973A48.67599982535973,48.67599982535973,0,1,1,-8.941636107213587e-15,48.67599982535973Z" fill="#cccccc" stroke="none"/></g><g transform="translate(508.5886611556417,423.80499003187464)" id="État de siège"><path id="p_961.2268250578699" d="M-5.296568113438147e-15,28.833173870353612A28.833173870353612,28.833173870353612,0,1,1,5.296568113438147e-15,-28.833173870353612A28.833173870353612,28.833173870353612,0,1,1,-5.296568113438147e-15,28.833173870353612Z" fill="#4a90e2" stroke="none"/></g><g transform="translate(455.28074891774327,114.83961795606203)" id="The Death of Stalin"><path id="p_611.0184123673541" d="M-7.5128490757586e-15,40.89804549354877A40.89804549354877,40.89804549354877,0,1,1,7.5128490757586e-15,-40.89804549354877A40.89804549354877,40.89804549354877,0,1,1,-7.5128490757586e-15,40.89804549354877Z" fill="#4a90e2" stroke="none"/></g><g transform="translate(187.8105479339256,370.33411663573474)" id="Aftersun"><path id="p_594.0204432643309" d="M-6.590273631802066e-15,35.87577869467056A35.87577869467056,35.87577869467056,0,1,1,6.590273631802066e-15,-35.87577869467056A35.87577869467056,35.87577869467056,0,1,1,-6.590273631802066e-15,35.87577869467056Z" fill="#4a90e2" stroke="none"/></g><g transform="translate(560.5141975880333,387.53153286302677)" id="Streets of Fire"><path id="p_977.0393649594176" d="M-5.326044254446258e-15,28.99363450835761A28.99363450835761,28.99363450835761,0,1,1,5.326044254446258e-15,-28.99363450835761A28.99363450835761,28.99363450835761,0,1,1,-5.326044254446258e-15,28.99363450835761Z" fill="#1000ff" stroke="none"/></g><g transform="translate(583.690434699423,247.16664219596498)" id="Cinderella"><path id="p_866.0026280815647" d="M-6.456133014663113e-15,35.1455511861767A35.1455511861767,35.1455511861767,0,1,1,6.456133014663113e-15,-35.1455511861767A35.1455511861767,35.1455511861767,0,1,1,-6.456133014663113e-15,35.1455511861767Z" fill="#420278" stroke="none"/></g><g transform="translate(197.46664018848324,223.18504922325212)" id="The Shootist"><path id="p_441.1566047950834" d="M-3.766691848650686e-15,20.5049153833481A20.5049153833481,20.5049153833481,0,1,1,3.766691848650686e-15,-20.5049153833481A20.5049153833481,20.5049153833481,0,1,1,-3.766691848650686e-15,20.5049153833481Z" fill="#85570a" stroke="none"/></g><g transform="translate(484.5562538993255,466.3753896382426)" id="Las brujas de Zugarramurdi"><path id="p_965.4702648710145" d="M-2.6707014120030858e-15,14.538621333446413A14.538621333446413,14.538621333446413,0,1,1,2.6707014120030858e-15,-14.538621333446413A14.538621333446413,14.538621333446413,0,1,1,-2.6707014120030858e-15,14.538621333446413Z" fill="#ff04cd" stroke="none"/></g><g transform="translate(370.3169727754391,507.01123743047486)" id="Three thieves"><path id="p_905.8282101083091" d="M-5.235365048425194e-15,28.499999902395036A28.499999902395036,28.499999902395036,0,1,1,5.235365048425194e-15,-28.499999902395036A28.499999902395036,28.499999902395036,0,1,1,-5.235365048425194e-15,28.499999902395036Z" fill="#ff04cd" stroke="none"/></g><g transform="translate(394.76180924258466,118.45939132995758)" id="Kenny"><path id="p_527.4365118023902" d="M-2.6113103094775088e-15,14.215311229847957A14.215311229847957,14.215311229847957,0,1,1,2.6113103094775088e-15,-14.215311229847957A14.215311229847957,14.215311229847957,0,1,1,-2.6113103094775088e-15,14.215311229847957Z" fill="#ff04cd" stroke="none"/></g><g transform="translate(322.85093727141145,506.4805826012714)" id="Heaven's Gate"><path id="p_842.7867819726713" d="M-2.4716915493659237e-15,13.455262099988403A13.455262099988403,13.455262099988403,0,1,1,2.4716915493659237e-15,-13.455262099988403A13.455262099988403,13.455262099988403,0,1,1,-2.4716915493659237e-15,13.455262099988403Z" fill="#85570a" stroke="none"/></g><g transform="translate(255.00571166051174,464.3828102787012)" id="Raising Victor Vargas"><path id="p_734.2035800433084" d="M-2.7214820229543774e-15,14.815058104095424A14.815058104095424,14.815058104095424,0,1,1,2.7214820229543774e-15,-14.815058104095424A14.815058104095424,14.815058104095424,0,1,1,-2.7214820229543774e-15,14.815058104095424Z" fill="#50e3c2" stroke="none"/></g><g transform="translate(174.10577772688555,316.08817023684566)" id="Bootmen"><path id="p_504.7547953321987" d="M-2.674784268400031e-15,14.56084736846749A14.56084736846749,14.56084736846749,0,1,1,2.674784268400031e-15,-14.56084736846749A14.56084736846749,14.56084736846749,0,1,1,-2.674784268400031e-15,14.56084736846749Z" fill="#713535" stroke="none"/></g><g transform="translate(211.93387307412303,414.0363583922048)" id="La meglio gioventù"><path id="p_634.4988535823662" d="M-1.5666824663315548e-15,8.528622116038356A8.528622116038356,8.528622116038356,0,1,1,1.5666824663315548e-15,-8.528622116038356A8.528622116038356,8.528622116038356,0,1,1,-1.5666824663315548e-15,8.528622116038356Z" fill="#4a90e2" stroke="none"/></g><g transform="translate(583.3744351898505,351.3516325582275)" id="Storm Boy"><path id="p_943.0156052358046" d="M-1.5227633326134671e-15,8.289537487726662A8.289537487726662,8.289537487726662,0,1,1,1.5227633326134671e-15,-8.289537487726662A8.289537487726662,8.289537487726662,0,1,1,-1.5227633326134671e-15,8.289537487726662Z" fill="#cccccc" stroke="none"/></g><g transform="translate(561.1305321491616,443.96561142459495)" id="Ten Canoes"><path id="p_1027.026213436609" d="M-4.028488479392995e-15,21.93006986285235A21.93006986285235,21.93006986285235,0,1,1,4.028488479392995e-15,-21.93006986285235A21.93006986285235,21.93006986285235,0,1,1,-4.028488479392995e-15,21.93006986285235Z" fill="#413f17" stroke="none"/></g><g transform="translate(526.9057412314748,485.6122408881316)" id="Der Himmel über Berlin"><path id="p_1038.9794418803872" d="M-4.860891299520985e-15,26.4614597607807A26.4614597607807,26.4614597607807,0,1,1,4.860891299520985e-15,-26.4614597607807A26.4614597607807,26.4614597607807,0,1,1,-4.860891299520985e-15,26.4614597607807Z" fill="#4a90e2" stroke="none"/></g><g transform="translate(478.6189188893506,501.2165758921054)" id="A Tree Grows in Brooklyn"><path id="p_995.1265943565993" d="M-2.8089294225214146e-15,15.291099575143358A15.291099575143358,15.291099575143358,0,1,1,2.8089294225214146e-15,-15.291099575143358A15.291099575143358,15.291099575143358,0,1,1,-2.8089294225214146e-15,15.291099575143358Z" fill="#4a90e2" stroke="none"/></g><g transform="translate(170.52170751286658,260.17006560365326)" id="Roman Holiday"><path id="p_450.4324977830963" d="M-3.626312291365819e-15,19.74072466657651A19.74072466657651,19.74072466657651,0,1,1,3.626312291365819e-15,-19.74072466657651A19.74072466657651,19.74072466657651,0,1,1,-3.626312291365819e-15,19.74072466657651Z" fill="#ff0000" stroke="none"/></g><g transform="translate(413.2357303066628,522.794362894598)" id="Naked Lunch"><path id="p_947.7451935030766" d="M-2.1520290129463396e-15,11.715100301815816A11.715100301815816,11.715100301815816,0,1,1,2.1520290129463396e-15,-11.715100301815816A11.715100301815816,11.715100301815816,0,1,1,-2.1520290129463396e-15,11.715100301815816Z" fill="#040f17" stroke="none"/></g><g transform="translate(600.9246844725997,299.68100298517425)" id="花樣年華"><path id="p_915.2164377893357" d="M-2.6839512940032438e-15,14.610750331561803A14.610750331561803,14.610750331561803,0,1,1,2.6839512940032438e-15,-14.610750331561803A14.610750331561803,14.610750331561803,0,1,1,-2.6839512940032438e-15,14.610750331561803Z" fill="#ff0000" stroke="none"/></g></g><g id="labels"><g transform="translate(365.9917111288538,308.5067201552673)"><text text-anchor="middle" dominant-baseline="text-before-edge" transform="translate(0,0)"/></g><g transform="translate(402.0465090094094,308.5067201552673)"><text text-anchor="middle" dominant-baseline="text-before-edge" transform="translate(0,0)"/></g><g transform="translate(387.4803072766935,341.6850942847127)"><text text-anchor="middle" dominant-baseline="text-before-edge" transform="translate(0,0)"/></g><g transform="translate(386.754014156386,284.7110909332606)"><text text-anchor="middle" dominant-baseline="text-before-edge" transform="translate(0,0)"/></g><g transform="translate(359.6557948143857,270.8115248302277)"><text text-anchor="middle" dominant-baseline="text-before-edge" transform="translate(0,0)"/></g><g transform="translate(355.3608122440713,338.7652264287915)"><text text-anchor="middle" dominant-baseline="text-before-edge" transform="translate(0,0)"/></g><g transform="translate(417.42734701231325,275.3595139251864)"><text text-anchor="middle" dominant-baseline="text-before-edge" transform="translate(0,0)"/></g><g transform="translate(426.46135390112767,335.05328226080013)"><text text-anchor="middle" dominant-baseline="text-before-edge" transform="translate(0,0)"/></g><g transform="translate(329.876129765334,294.0528010973217)"><text text-anchor="middle" dominant-baseline="text-before-edge" transform="translate(0,0)"/></g><g transform="translate(320.773009187591,334.70059647709013)"><text text-anchor="middle" dominant-baseline="text-before-edge" transform="translate(0,0)"/></g><g transform="translate(389.39707322639657,248.82152403536756)"><text text-anchor="middle" dominant-baseline="text-before-edge" transform="translate(0,0)"/></g><g transform="translate(437.3044027428381,303.1519292526856)"><text text-anchor="middle" dominant-baseline="text-before-edge" transform="translate(0,0)"/></g><g transform="translate(362.7517013648212,362.52034970710383)"><text text-anchor="middle" dominant-baseline="text-before-edge" transform="translate(0,0)"/></g><g transform="translate(414.6553445365301,382.2993151952909)"><text text-anchor="middle" dominant-baseline="text-before-edge" transform="translate(0,0)"/></g><g transform="translate(327.41513522261,259.19261810210156)"><text text-anchor="middle" dominant-baseline="text-before-edge" transform="translate(0,0)"/></g><g transform="translate(376.5175321985871,379.32413935351786)"><text text-anchor="middle" dominant-baseline="text-before-edge" transform="translate(0,0)"/></g><g transform="translate(333.5783053302841,373.9405751861146)"><text text-anchor="middle" dominant-baseline="text-before-edge" transform="translate(0,0)"/></g><g transform="translate(352.85086081115094,230.29337395060446)"><text text-anchor="middle" dominant-baseline="text-before-edge" transform="translate(0,0)"/></g><g transform="translate(451.43173767095334,278.93376350159315)"><text text-anchor="middle" dominant-baseline="text-before-edge" transform="translate(0,0)"/></g><g transform="translate(451.78194616300635,321.23671210718027)"><text text-anchor="middle" dominant-baseline="text-before-edge" transform="translate(0,0)"/></g><g transform="translate(438.6591885412733,221.1364265425882)"><text text-anchor="middle" dominant-baseline="text-before-edge" transform="translate(0,0)"/></g><g transform="translate(248.988907258695,290.7767587497448)"><text text-anchor="middle" dominant-baseline="text-before-edge" transform="translate(0,0)"/></g><g transform="translate(280.0001862715959,133.32579507196928)"><text text-anchor="middle" dominant-baseline="text-before-edge" transform="translate(0,0)"/></g><g transform="translate(478.42226623540284,360.7709111889433)"><text text-anchor="middle" dominant-baseline="text-before-edge" transform="translate(0,0)"/></g><g transform="translate(494.23090496628953,263.1403210472203)"><text text-anchor="middle" dominant-baseline="text-before-edge" transform="translate(0,0)"/></g><g transform="translate(544.4731887773876,316.1293561930428)"><text text-anchor="middle" dominant-baseline="text-before-edge" transform="translate(0,0)"/></g><g transform="translate(359.9824440295558,431.7523702566305)"><text text-anchor="middle" dominant-baseline="text-before-edge" transform="translate(0,0)"/></g><g transform="translate(403.26182390292865,164.7959486556143)"><text text-anchor="middle" dominant-baseline="text-before-edge" transform="translate(0,0)"/></g><g transform="translate(270.58725815920764,399.5180959967729)"><text text-anchor="middle" dominant-baseline="text-before-edge" transform="translate(0,0)"/></g><g transform="translate(453.73924189882064,417.54352452197884)"><text text-anchor="middle" dominant-baseline="text-before-edge" transform="translate(0,0)"/></g><g transform="translate(299.3003346280406,470.1368691006921)"><text text-anchor="middle" dominant-baseline="text-before-edge" transform="translate(0,0)"/></g><g transform="translate(430.4145074815948,473.8868618174271)"><text text-anchor="middle" dominant-baseline="text-before-edge" transform="translate(0,0)"/></g><g transform="translate(520.2269626333167,184.29230818906268)"><text text-anchor="middle" dominant-baseline="text-before-edge" transform="translate(0,0)"/></g><g transform="translate(508.5886611556417,423.80499003187464)"><text text-anchor="middle" dominant-baseline="text-before-edge" transform="translate(0,0)"/></g><g transform="translate(455.28074891774327,114.83961795606203)"><text text-anchor="middle" dominant-baseline="text-before-edge" transform="translate(0,0)"/></g><g transform="translate(187.8105479339256,370.33411663573474)"><text text-anchor="middle" dominant-baseline="text-before-edge" transform="translate(0,0)"/></g><g transform="translate(560.5141975880333,387.53153286302677)"><text text-anchor="middle" dominant-baseline="text-before-edge" transform="translate(0,0)"/></g><g transform="translate(583.690434699423,247.16664219596498)"><text text-anchor="middle" dominant-baseline="text-before-edge" transform="translate(0,0)"/></g><g transform="translate(197.46664018848324,223.18504922325212)"><text text-anchor="middle" dominant-baseline="text-before-edge" transform="translate(0,0)"/></g><g transform="translate(484.5562538993255,466.3753896382426)"><text text-anchor="middle" dominant-baseline="text-before-edge" transform="translate(0,0)"/></g><g transform="translate(370.3169727754391,507.01123743047486)"><text text-anchor="middle" dominant-baseline="text-before-edge" transform="translate(0,0)"/></g><g transform="translate(394.76180924258466,118.45939132995758)"><text text-anchor="middle" dominant-baseline="text-before-edge" transform="translate(0,0)"/></g><g transform="translate(322.85093727141145,506.4805826012714)"><text text-anchor="middle" dominant-baseline="text-before-edge" transform="translate(0,0)"/></g><g transform="translate(255.00571166051174,464.3828102787012)"><text text-anchor="middle" dominant-baseline="text-before-edge" transform="translate(0,0)"/></g><g transform="translate(174.10577772688555,316.08817023684566)"><text text-anchor="middle" dominant-baseline="text-before-edge" transform="translate(0,0)"/></g><g transform="translate(211.93387307412303,414.0363583922048)"><text text-anchor="middle" dominant-baseline="text-before-edge" transform="translate(0,0)"/></g><g transform="translate(583.3744351898505,351.3516325582275)"><text text-anchor="middle" dominant-baseline="text-before-edge" transform="translate(0,0)"/></g><g transform="translate(561.1305321491616,443.96561142459495)"><text text-anchor="middle" dominant-baseline="text-before-edge" transform="translate(0,0)"/></g><g transform="translate(526.9057412314748,485.6122408881316)"><text text-anchor="middle" dominant-baseline="text-before-edge" transform="translate(0,0)"/></g><g transform="translate(478.6189188893506,501.2165758921054)"><text text-anchor="middle" dominant-baseline="text-before-edge" transform="translate(0,0)"/></g><g transform="translate(170.52170751286658,260.17006560365326)"><text text-anchor="middle" dominant-baseline="text-before-edge" transform="translate(0,0)"/></g><g transform="translate(413.2357303066628,522.794362894598)"><text text-anchor="middle" dominant-baseline="text-before-edge" transform="translate(0,0)"/></g><g transform="translate(600.9246844725997,299.68100298517425)"><text text-anchor="middle" dominant-baseline="text-before-edge" transform="translate(0,0)"/></g></g></g></svg>