<svg xmlns="http://www.w3.org/2000/svg" width="3000" height="1000"><rect width="3000" height="1000" x="0" y="0" fill="#ffffff" id="background"/><g transform="translate(10,10)" id="viz"><g id="arcs"><path d="M18.08643725049174,490A11.645538746024009,11.645538746024009 0,0,1 41.37751474253976,490" fill="none" stroke="gray" stroke-width="33" opacity="0.7"/><path d="M81.46538514369604,490A10.021967600289067,10.021967600289067 0,0,1 101.50932034427417,490" fill="none" stroke="gray" stroke-width="33" opacity="0.7"/><path d="M124.80039783632219,490A14.514919848785297,14.514919848785297 0,0,1 153.83023753389278,490" fill="none" stroke="gray" stroke-width="33" opacity="0.7"/><path d="M206.15115472351144,490A10.021967600289074,10.021967600289074 0,0,1 226.1950899240896,490" fill="none" stroke="gray" stroke-width="33" opacity="0.7"/><path d="M249.4861674161376,490A11.645538746024002,11.645538746024002 0,0,1 272.7772449081856,490" fill="none" stroke="gray" stroke-width="33" opacity="0.7"/><path d="M312.86511530934183,490A14.866918332800282,14.866918332800282 0,0,1 342.5989519749424,490" fill="none" stroke="gray" stroke-width="33" opacity="0.7"/><path d="M372.33278864054296,490A10.02196760028906,10.02196760028906 0,0,1 392.3767238411211,490" fill="none" stroke="gray" stroke-width="33" opacity="0.7"/><path d="M425.32218899833146,490A31.36541361609906,31.36541361609906 0,0,1 488.0530162305296,490" fill="none" stroke="gray" stroke-width="33" opacity="0.7"/><path d="M550.7678318532006,490A10.021967600289088,10.021967600289088 0,0,1 570.8117670537788,490" fill="none" stroke="gray" stroke-width="33" opacity="0.7"/><path d="M596.5944644598796,490A46.76613913313213,46.76613913313213 0,0,1 690.1267427261439,490" fill="none" stroke="gray" stroke-width="33" opacity="0.7"/><path d="M596.5944644598796,490A15.76072980581165,15.76072980581165 0,0,1 628.115924071503,490" fill="none" stroke="gray" stroke-width="33" opacity="0.7"/><path d="M743.1516568837926,490A11.645538746023988,11.645538746023988 0,0,1 766.4427343758406,490" fill="none" stroke="gray" stroke-width="33" opacity="0.7"/><path d="M806.5306047769969,490A10.021967600289088,10.021967600289088 0,0,1 826.5745399775751,490" fill="none" stroke="gray" stroke-width="33" opacity="0.7"/><path d="M846.6184751781533,490A19.102320120778188,19.102320120778188 0,0,1 884.8231154197097,490" fill="none" stroke="gray" stroke-width="33" opacity="0.7"/><path d="M1012.8933979286011,490A429.5315801973542,429.5315801973542 0,0,1 153.83023753389278,490" fill="none" stroke="gray" stroke-width="33" opacity="0.7"/><path d="M182.8600772314634,490A14.514919848785311,14.514919848785311 0,0,1 153.83023753389278,490" fill="none" stroke="gray" stroke-width="33" opacity="0.7"/><path d="M249.4861674161376,490A21.66750634631306,21.66750634631306 0,0,1 292.8211801087637,490" fill="none" stroke="gray" stroke-width="33" opacity="0.7"/><path d="M1172.914138547693,490A13.94161507979993,13.94161507979993 0,0,1 1200.797368707293,490" fill="none" stroke="gray" stroke-width="33" opacity="0.7"/><path d="M18.08643725049174,490A21.667506346313075,21.667506346313075 0,0,1 61.42144994311789,490" fill="none" stroke="gray" stroke-width="33" opacity="0.7"/><path d="M1231.927741158363,490A11.64553874602393,11.64553874602393 0,0,1 1255.2188186504109,490" fill="none" stroke="gray" stroke-width="33" opacity="0.7"/><path d="M1231.927741158363,490A21.667506346312962,21.667506346312962 0,0,1 1275.262753850989,490" fill="none" stroke="gray" stroke-width="33" opacity="0.7"/><path d="M596.5944644598796,490A126.99775624246863,126.99775624246863 0,0,1 342.5989519749424,490" fill="none" stroke="gray" stroke-width="33" opacity="0.7"/><path d="M743.1516568837926,490A21.667506346313075,21.667506346313075 0,0,1 786.4866695764188,490" fill="none" stroke="gray" stroke-width="33" opacity="0.7"/><path d="M124.80039783632219,490A537.9984854354853,537.9984854354853 0,0,1 1200.797368707293,490" fill="none" stroke="gray" stroke-width="33" opacity="0.7"/><path d="M1012.8933979286011,490A192.38873692854906,192.38873692854906 0,0,1 628.115924071503,490" fill="none" stroke="gray" stroke-width="33" opacity="0.7"/><path d="M1012.8933979286011,490A18.786565812311153,18.786565812311153 0,0,1 1050.4665295532234,490" fill="none" stroke="gray" stroke-width="33" opacity="0.7"/><path d="M1012.8933979286011,490A35.59756199487248,35.59756199487248 0,0,1 1084.088521918346,490" fill="none" stroke="gray" stroke-width="33" opacity="0.7"/><path d="M182.8600772314634,490A450.6142223434413,450.6142223434413 0,0,1 1084.088521918346,490" fill="none" stroke="gray" stroke-width="33" opacity="0.7"/><path d="M1298.553831343037,490A11.64553874602393,11.64553874602393 0,0,1 1321.8449088350849,490" fill="none" stroke="gray" stroke-width="33" opacity="0.7"/><path d="M1361.932779236241,490A11.645538746024044,11.645538746024044 0,0,1 1385.223856728289,490" fill="none" stroke="gray" stroke-width="33" opacity="0.7"/><path d="M1012.8933979286011,490A51.35829180068407,51.35829180068407 0,0,1 1115.6099815299692,490" fill="none" stroke="gray" stroke-width="33" opacity="0.7"/><path d="M1298.553831343037,490A21.667506346312962,21.667506346312962 0,0,1 1341.888844035663,490" fill="none" stroke="gray" stroke-width="33" opacity="0.7"/><path d="M1408.514934220337,490A10.021967600289031,10.021967600289031 0,0,1 1428.558869420915,490" fill="none" stroke="gray" stroke-width="33" opacity="0.7"/><path d="M425.32218899833146,490A132.40227686390622,132.40227686390622 0,0,1 690.1267427261439,490" fill="none" stroke="gray" stroke-width="33" opacity="0.7"/><path d="M425.32218899833146,490A513.2638789573158,513.2638789573158 0,0,1 1451.849946912963,490" fill="none" stroke="gray" stroke-width="33" opacity="0.7"/><path d="M425.32218899833146,490A387.7375898544807,387.7375898544807 0,0,1 1200.797368707293,490" fill="none" stroke="gray" stroke-width="33" opacity="0.7"/><path d="M425.32218899833146,490A312.57217027744593,312.57217027744593 0,0,1 1050.4665295532234,490" fill="none" stroke="gray" stroke-width="33" opacity="0.7"/><path d="M425.32218899833146,490A18.096303724340117,18.096303724340117 0,0,1 461.5147964470117,490" fill="none" stroke="gray" stroke-width="33" opacity="0.7"/><path d="M425.32218899833146,490A41.36161851169453,41.36161851169453 0,0,1 342.5989519749424,490" fill="none" stroke="gray" stroke-width="33" opacity="0.7"/><path d="M1498.432101897059,490A11.64553874602393,11.64553874602393 0,0,1 1521.723179389107,490" fill="none" stroke="gray" stroke-width="33" opacity="0.7"/><path d="M657.1457637690735,490A196.66038289207495,196.66038289207495 0,0,1 1050.4665295532234,490" fill="none" stroke="gray" stroke-width="33" opacity="0.7"/><path d="M1498.432101897059,490A306.8044932386747,306.8044932386747 0,0,1 884.8231154197097,490" fill="none" stroke="gray" stroke-width="33" opacity="0.7"/><path d="M1554.6686445463172,490A58.184174125496384,58.184174125496384 0,0,1 1671.03699279731,490" fill="none" stroke="gray" stroke-width="33" opacity="0.7"/><path d="M1554.6686445463172,490A334.92276456330376,334.92276456330376 0,0,1 884.8231154197097,490" fill="none" stroke="gray" stroke-width="33" opacity="0.7"/><path d="M1724.1134323643457,490A23.291077492047975,23.291077492047975 0,0,1 1770.6955873484417,490" fill="none" stroke="gray" stroke-width="33" opacity="0.7"/><path d="M923.0277556612659,490A19.10232012077813,19.10232012077813 0,0,1 884.8231154197097,490" fill="none" stroke="gray" stroke-width="33" opacity="0.7"/><path d="M943.0716908618441,490A29.12428772106722,29.12428772106722 0,0,1 884.8231154197097,490" fill="none" stroke="gray" stroke-width="33" opacity="0.7"/><path d="M1554.6686445463172,490A131.30454889311022,131.30454889311022 0,0,1 1817.2777423325376,490" fill="none" stroke="gray" stroke-width="33" opacity="0.7"/><path d="M1895.3813569282568,490A11.64553874602393,11.64553874602393 0,0,1 1918.6724344203046,490" fill="none" stroke="gray" stroke-width="33" opacity="0.7"/><path d="M1895.3813569282568,490A21.667506346312962,21.667506346312962 0,0,1 1938.7163696208827,490" fill="none" stroke="gray" stroke-width="33" opacity="0.7"/><path d="M1958.7603048214607,490A10.021967600289031,10.021967600289031 0,0,1 1978.8042400220388,490" fill="none" stroke="gray" stroke-width="33" opacity="0.7"/><path d="M1724.1134323643457,490A11.64553874602393,11.64553874602393 0,0,1 1747.4045098563936,490" fill="none" stroke="gray" stroke-width="33" opacity="0.7"/><path d="M2008.5380766876394,490A311.65710997967517,311.65710997967517 0,0,1 1385.223856728289,490" fill="none" stroke="gray" stroke-width="33" opacity="0.7"/><path d="M657.1457637690735,490A14.514919848785269,14.514919848785269 0,0,1 628.115924071503,490" fill="none" stroke="gray" stroke-width="33" opacity="0.7"/><path d="M1554.6686445463172,490A16.472732578605246,16.472732578605246 0,0,1 1587.6141097035277,490" fill="none" stroke="gray" stroke-width="33" opacity="0.7"/><path d="M1554.6686445463172,490A26.494700178894277,26.494700178894277 0,0,1 1607.6580449041057,490" fill="none" stroke="gray" stroke-width="33" opacity="0.7"/><path d="M2008.5380766876394,490A659.2056669807478,659.2056669807478 0,0,1 690.1267427261439,490" fill="none" stroke="gray" stroke-width="33" opacity="0.7"/><path d="M963.1156260624223,490A39.14625532135631,39.14625532135631 0,0,1 884.8231154197097,490" fill="none" stroke="gray" stroke-width="33" opacity="0.7"/><path d="M1554.6686445463172,490A36.51666777918331,36.51666777918331 0,0,1 1627.7019801046838,490" fill="none" stroke="gray" stroke-width="33" opacity="0.7"/><path d="M1554.6686445463172,490A46.53863537947234,46.53863537947234 0,0,1 1647.7459153052619,490" fill="none" stroke="gray" stroke-width="33" opacity="0.7"/><path d="M2008.5380766876394,490A403.87035399017327,403.87035399017327 0,0,1 1200.797368707293,490" fill="none" stroke="gray" stroke-width="33" opacity="0.7"/><path d="M1793.9866648404895,490A11.64553874602393,11.64553874602393 0,0,1 1770.6955873484417,490" fill="none" stroke="gray" stroke-width="33" opacity="0.7"/><path d="M2058.315848553818,490A10.021967600289145,10.021967600289145 0,0,1 2078.359783754396,490" fill="none" stroke="gray" stroke-width="33" opacity="0.7"/><path d="M2106.243013913996,490A13.941615079800158,13.941615079800158 0,0,1 2134.1262440735964,490" fill="none" stroke="gray" stroke-width="33" opacity="0.7"/><path d="M2106.243013913996,490A23.963582680089303,23.963582680089303 0,0,1 2154.1701792741746,490" fill="none" stroke="gray" stroke-width="33" opacity="0.7"/><path d="M2197.505191966801,490A11.645538746024158,11.645538746024158 0,0,1 2220.796269458849,490" fill="none" stroke="gray" stroke-width="33" opacity="0.7"/><path d="M2264.1312821514753,490A11.645538746024158,11.645538746024158 0,0,1 2287.4223596435236,490" fill="none" stroke="gray" stroke-width="33" opacity="0.7"/><path d="M2264.1312821514753,490A21.667506346313303,21.667506346313303 0,0,1 2307.466294844102,490" fill="none" stroke="gray" stroke-width="33" opacity="0.7"/><path d="M2106.243013913996,490A33.98555028037845,33.98555028037845 0,0,1 2174.214114474753,490" fill="none" stroke="gray" stroke-width="33" opacity="0.7"/><path d="M2338.873207678434,490A15.70345641716608,15.70345641716608 0,0,1 2370.280120512766,490" fill="none" stroke="gray" stroke-width="33" opacity="0.7"/><path d="M2338.873207678434,490A727.0250461293622,727.0250461293622 0,0,1 884.8231154197097,490" fill="none" stroke="gray" stroke-width="33" opacity="0.7"/><path d="M2450.4558613150793,490A10.021967600289145,10.021967600289145 0,0,1 2470.4997965156576,490" fill="none" stroke="gray" stroke-width="33" opacity="0.7"/><path d="M2008.5380766876394,490A832.9695623563485,832.9695623563485 0,0,1 342.5989519749424,490" fill="none" stroke="gray" stroke-width="33" opacity="0.7"/><path d="M2338.873207678434,490A25.725424017455225,25.725424017455225 0,0,1 2390.3240557133445,490" fill="none" stroke="gray" stroke-width="33" opacity="0.7"/><path d="M2490.543731716236,490A10.021967600289145,10.021967600289145 0,0,1 2510.587666916814,490" fill="none" stroke="gray" stroke-width="33" opacity="0.7"/><path d="M2106.243013913996,490A610.7099492471432,610.7099492471432 0,0,1 884.8231154197097,490" fill="none" stroke="gray" stroke-width="33" opacity="0.7"/><path d="M2008.5380766876394,490A14.866918332800196,14.866918332800196 0,0,1 2038.2719133532398,490" fill="none" stroke="gray" stroke-width="33" opacity="0.7"/><path d="M983.1595612630005,490A49.168222921645395,49.168222921645395 0,0,1 884.8231154197097,490" fill="none" stroke="gray" stroke-width="33" opacity="0.7"/><path d="M2197.505191966801,490A21.667506346313303,21.667506346313303 0,0,1 2240.8402046594274,490" fill="none" stroke="gray" stroke-width="33" opacity="0.7"/><path d="M2338.873207678434,490A35.74739161774437,35.74739161774437 0,0,1 2410.3679909139228,490" fill="none" stroke="gray" stroke-width="33" opacity="0.7"/><path d="M2530.6316021173925,490A10.021967600289145,10.021967600289145 0,0,1 2550.675537317971,490" fill="none" stroke="gray" stroke-width="33" opacity="0.7"/><path d="M2570.719472518549,490A10.021967600289145,10.021967600289145 0,0,1 2590.7634077191274,490" fill="none" stroke="gray" stroke-width="33" opacity="0.7"/><path d="M1475.141024405011,490A11.64553874602393,11.64553874602393 0,0,1 1451.849946912963,490" fill="none" stroke="gray" stroke-width="33" opacity="0.7"/><path d="M2338.873207678434,490A137.5906387663706,137.5906387663706 0,0,1 2614.0544852111752,490" fill="none" stroke="gray" stroke-width="33" opacity="0.7"/><path d="M2338.873207678434,490A45.769359218033514,45.769359218033514 0,0,1 2430.411926114501,490" fill="none" stroke="gray" stroke-width="33" opacity="0.7"/><path d="M2657.389497903802,490A10.021967600289145,10.021967600289145 0,0,1 2677.43343310438,490" fill="none" stroke="gray" stroke-width="33" opacity="0.7"/><path d="M2637.3455627032235,490A11.645538746024158,11.645538746024158 0,0,1 2614.0544852111752,490" fill="none" stroke="gray" stroke-width="33" opacity="0.7"/><path d="M1147.1314411415924,490A48.33245579418451,48.33245579418451 0,0,1 1050.4665295532234,490" fill="none" stroke="gray" stroke-width="33" opacity="0.7"/><path d="M1147.1314411415924,490A31.521459611623186,31.521459611623186 0,0,1 1084.088521918346,490" fill="none" stroke="gray" stroke-width="33" opacity="0.7"/><path d="M2697.4773683049584,490A10.021967600289145,10.021967600289145 0,0,1 2717.5213035055367,490" fill="none" stroke="gray" stroke-width="33" opacity="0.7"/><path d="M719.8605793917445,490A14.86691833280031,14.86691833280031 0,0,1 690.1267427261439,490" fill="none" stroke="gray" stroke-width="33" opacity="0.7"/><path d="M521.0339951876,490A16.49048947853521,16.49048947853521 0,0,1 488.0530162305296,490" fill="none" stroke="gray" stroke-width="33" opacity="0.7"/><path d="M2745.4045336651366,490A13.941615079800158,13.941615079800158 0,0,1 2773.287763824737,490" fill="none" stroke="gray" stroke-width="33" opacity="0.7"/><path d="M1697.5752125808278,490A406.3760485805591,406.3760485805591 0,0,1 884.8231154197097,490" fill="none" stroke="gray" stroke-width="33" opacity="0.7"/><path d="M521.0339951876,490A84.54637376927195,84.54637376927195 0,0,1 690.1267427261439,490" fill="none" stroke="gray" stroke-width="33" opacity="0.7"/><path d="M1147.1314411415924,490A15.760729805811593,15.760729805811593 0,0,1 1115.6099815299692,490" fill="none" stroke="gray" stroke-width="33" opacity="0.7"/><path d="M1846.307582030108,490A14.514919848785212,14.514919848785212 0,0,1 1817.2777423325376,490" fill="none" stroke="gray" stroke-width="33" opacity="0.7"/><path d="M1697.5752125808278,490A13.269109891758944,13.269109891758944 0,0,1 1671.03699279731,490" fill="none" stroke="gray" stroke-width="33" opacity="0.7"/><path d="M1846.307582030108,490A12.891348703050312,12.891348703050312 0,0,1 1872.0902794362087,490" fill="none" stroke="gray" stroke-width="33" opacity="0.7"/><path d="M521.0339951876,490A29.759599370294154,29.759599370294154 0,0,1 461.5147964470117,490" fill="none" stroke="gray" stroke-width="33" opacity="0.7"/><path d="M2745.4045336651366,490A23.963582680089303,23.963582680089303 0,0,1 2793.331699025315,490" fill="none" stroke="gray" stroke-width="33" opacity="0.7"/><path d="M2745.4045336651366,490A33.98555028037845,33.98555028037845 0,0,1 2813.3756342258935,490" fill="none" stroke="gray" stroke-width="33" opacity="0.7"/><path d="M2853.46350462705,490A10.021967600289145,10.021967600289145 0,0,1 2873.5074398276283,490" fill="none" stroke="gray" stroke-width="33" opacity="0.7"/><path d="M2899.290137233729,490A12.891348703050426,12.891348703050426 0,0,1 2925.07283463983,490" fill="none" stroke="gray" stroke-width="33" opacity="0.7"/><path d="M521.0339951876,490A297.2879931711846,297.2879931711846 0,0,1 1115.6099815299692,490" fill="none" stroke="gray" stroke-width="33" opacity="0.7"/><path d="M521.0339951876,490A89.2175216063288,89.2175216063288 0,0,1 342.5989519749424,490" fill="none" stroke="gray" stroke-width="33" opacity="0.7"/><path d="M2899.290137233729,490A22.91331630333957,22.91331630333957 0,0,1 2945.1167698404083,490" fill="none" stroke="gray" stroke-width="33" opacity="0.7"/><path d="M1846.307582030108,490A480.7422333051992,480.7422333051992 0,0,1 884.8231154197097,490" fill="none" stroke="gray" stroke-width="33" opacity="0.7"/><path d="M2745.4045336651366,490A44.00751788066759,44.00751788066759 0,0,1 2833.4195694264718,490" fill="none" stroke="gray" stroke-width="33" opacity="0.7"/><path d="M2899.290137233729,490A32.935283903628715,32.935283903628715 0,0,1 2965.1607050409866,490" fill="none" stroke="gray" stroke-width="33" opacity="0.7"/></g><g id="nodes"><g><circle cx="18.08643725049174" cy="490" r="18.08643725049174"/><text transform="translate(18.08643725049174,513.0864372504917) rotate(-90)" alignment-baseline="middle" font-family="Helvetica, Arial, sans-serif" font-size="12" text-anchor="end">The Wind That Shakes the Barley</text></g><g><circle cx="41.37751474253976" cy="490" r="14.839294959021853"/><text transform="translate(41.37751474253976,509.83929495902186) rotate(-90)" alignment-baseline="middle" font-family="Helvetica, Arial, sans-serif" font-size="12" text-anchor="end">Palme d'Or</text></g><g><circle cx="61.42144994311789" cy="490" r="14.839294959021853"/><text transform="translate(61.42144994311789,509.83929495902186) rotate(-90)" alignment-baseline="middle" font-family="Helvetica, Arial, sans-serif" font-size="12" text-anchor="end">European Film Award for Best Cinematographer</text></g><g><circle cx="81.46538514369604" cy="490" r="14.839294959021853"/><text transform="translate(81.46538514369604,509.83929495902186) rotate(-90)" alignment-baseline="middle" font-family="Helvetica, Arial, sans-serif" font-size="12" text-anchor="end">El aura</text></g><g><circle cx="101.50932034427417" cy="490" r="14.839294959021853"/><text transform="translate(101.50932034427417,509.83929495902186) rotate(-90)" alignment-baseline="middle" font-family="Helvetica, Arial, sans-serif" font-size="12" text-anchor="end">Silver Condor Award for Best Film</text></g><g><circle cx="124.80039783632219" cy="490" r="18.08643725049174"/><text transform="translate(124.80039783632219,513.0864372504917) rotate(-90)" alignment-baseline="middle" font-family="Helvetica, Arial, sans-serif" font-size="12" text-anchor="end">The Rover</text></g><g><circle cx="153.83023753389278" cy="490" r="20.578057164544433"/><text transform="translate(153.83023753389278,515.5780571645444) rotate(-90)" alignment-baseline="middle" font-family="Helvetica, Arial, sans-serif" font-size="12" text-anchor="end">AACTA Award for Best Sound</text></g><g><circle cx="182.8600772314634" cy="490" r="18.08643725049174"/><text transform="translate(182.8600772314634,513.0864372504917) rotate(-90)" alignment-baseline="middle" font-family="Helvetica, Arial, sans-serif" font-size="12" text-anchor="end">The Lighthorsemen</text></g><g><circle cx="206.15115472351144" cy="490" r="14.839294959021853"/><text transform="translate(206.15115472351144,509.83929495902186) rotate(-90)" alignment-baseline="middle" font-family="Helvetica, Arial, sans-serif" font-size="12" text-anchor="end">Hermano</text></g><g><circle cx="226.1950899240896" cy="490" r="14.839294959021853"/><text transform="translate(226.1950899240896,509.83929495902186) rotate(-90)" alignment-baseline="middle" font-family="Helvetica, Arial, sans-serif" font-size="12" text-anchor="end">Golden George</text></g><g><circle cx="249.4861674161376" cy="490" r="18.08643725049174"/><text transform="translate(249.4861674161376,513.0864372504917) rotate(-90)" alignment-baseline="middle" font-family="Helvetica, Arial, sans-serif" font-size="12" text-anchor="end">The Producers</text></g><g><circle cx="272.7772449081856" cy="490" r="14.839294959021853"/><text transform="translate(272.7772449081856,509.83929495902186) rotate(-90)" alignment-baseline="middle" font-family="Helvetica, Arial, sans-serif" font-size="12" text-anchor="end">Academy Award for Best Writing, Original Screenplay</text></g><g><circle cx="292.8211801087637" cy="490" r="14.839294959021853"/><text transform="translate(292.8211801087637,509.83929495902186) rotate(-90)" alignment-baseline="middle" font-family="Helvetica, Arial, sans-serif" font-size="12" text-anchor="end">Writers Guild of America Award for Best Original Screenplay</text></g><g><circle cx="312.86511530934183" cy="490" r="14.839294959021853"/><text transform="translate(312.86511530934183,509.83929495902186) rotate(-90)" alignment-baseline="middle" font-family="Helvetica, Arial, sans-serif" font-size="12" text-anchor="end">Head On</text></g><g><circle cx="342.5989519749424" cy="490" r="24.529196424044297"/><text transform="translate(342.5989519749424,519.5291964240442) rotate(-90)" alignment-baseline="middle" font-family="Helvetica, Arial, sans-serif" font-size="12" text-anchor="end">AACTA Award for Best Editing</text></g><g><circle cx="372.33278864054296" cy="490" r="14.839294959021853"/><text transform="translate(372.33278864054296,509.83929495902186) rotate(-90)" alignment-baseline="middle" font-family="Helvetica, Arial, sans-serif" font-size="12" text-anchor="end">The Time Machine</text></g><g><circle cx="392.3767238411211" cy="490" r="14.839294959021853"/><text transform="translate(392.3767238411211,509.83929495902186) rotate(-90)" alignment-baseline="middle" font-family="Helvetica, Arial, sans-serif" font-size="12" text-anchor="end">Academy Award for Best Special Effects</text></g><g><circle cx="425.32218899833146" cy="490" r="27.74082491565411"/><text transform="translate(425.32218899833146,522.7408249156541) rotate(-90)" alignment-baseline="middle" font-family="Helvetica, Arial, sans-serif" font-size="12" text-anchor="end">Newsfront</text></g><g><circle cx="461.5147964470117" cy="490" r="18.08643725049174"/><text transform="translate(461.5147964470117,513.0864372504917) rotate(-90)" alignment-baseline="middle" font-family="Helvetica, Arial, sans-serif" font-size="12" text-anchor="end">AACTA Award for Best Direction</text></g><g><circle cx="488.0530162305296" cy="490" r="18.08643725049174"/><text transform="translate(488.0530162305296,513.0864372504917) rotate(-90)" alignment-baseline="middle" font-family="Helvetica, Arial, sans-serif" font-size="12" text-anchor="end">AACTA Award for Best Original Screenplay</text></g><g><circle cx="521.0339951876" cy="490" r="24.529196424044297"/><text transform="translate(521.0339951876,519.5291964240442) rotate(-90)" alignment-baseline="middle" font-family="Helvetica, Arial, sans-serif" font-size="12" text-anchor="end">Ten Canoes</text></g><g><circle cx="550.7678318532006" cy="490" r="14.839294959021853"/><text transform="translate(550.7678318532006,509.83929495902186) rotate(-90)" alignment-baseline="middle" font-family="Helvetica, Arial, sans-serif" font-size="12" text-anchor="end">Iron Sky</text></g><g><circle cx="570.8117670537788" cy="490" r="14.839294959021853"/><text transform="translate(570.8117670537788,509.83929495902186) rotate(-90)" alignment-baseline="middle" font-family="Helvetica, Arial, sans-serif" font-size="12" text-anchor="end">Q3411704</text></g><g><circle cx="596.5944644598796" cy="490" r="20.578057164544433"/><text transform="translate(596.5944644598796,515.5780571645444) rotate(-90)" alignment-baseline="middle" font-family="Helvetica, Arial, sans-serif" font-size="12" text-anchor="end">Flirting</text></g><g><circle cx="628.115924071503" cy="490" r="20.578057164544433"/><text transform="translate(628.115924071503,515.5780571645444) rotate(-90)" alignment-baseline="middle" font-family="Helvetica, Arial, sans-serif" font-size="12" text-anchor="end">AACTA Award for Best Production Design</text></g><g><circle cx="657.1457637690735" cy="490" r="18.08643725049174"/><text transform="translate(657.1457637690735,513.0864372504917) rotate(-90)" alignment-baseline="middle" font-family="Helvetica, Arial, sans-serif" font-size="12" text-anchor="end">Ned Kelly</text></g><g><circle cx="690.1267427261439" cy="490" r="24.529196424044297"/><text transform="translate(690.1267427261439,519.5291964240442) rotate(-90)" alignment-baseline="middle" font-family="Helvetica, Arial, sans-serif" font-size="12" text-anchor="end">AACTA Award for Best Film</text></g><g><circle cx="719.8605793917445" cy="490" r="14.839294959021853"/><text transform="translate(719.8605793917445,509.83929495902186) rotate(-90)" alignment-baseline="middle" font-family="Helvetica, Arial, sans-serif" font-size="12" text-anchor="end">Storm Boy</text></g><g><circle cx="743.1516568837926" cy="490" r="18.08643725049174"/><text transform="translate(743.1516568837926,513.0864372504917) rotate(-90)" alignment-baseline="middle" font-family="Helvetica, Arial, sans-serif" font-size="12" text-anchor="end">Weekend</text></g><g><circle cx="766.4427343758406" cy="490" r="14.839294959021853"/><text transform="translate(766.4427343758406,509.83929495902186) rotate(-90)" alignment-baseline="middle" font-family="Helvetica, Arial, sans-serif" font-size="12" text-anchor="end">Dorian Award for LGBTQ Film of the Year</text></g><g><circle cx="786.4866695764188" cy="490" r="14.839294959021853"/><text transform="translate(786.4866695764188,509.83929495902186) rotate(-90)" alignment-baseline="middle" font-family="Helvetica, Arial, sans-serif" font-size="12" text-anchor="end">Dorian Award for Film of the Year</text></g><g><circle cx="806.5306047769969" cy="490" r="14.839294959021853"/><text transform="translate(806.5306047769969,509.83929495902186) rotate(-90)" alignment-baseline="middle" font-family="Helvetica, Arial, sans-serif" font-size="12" text-anchor="end">La Patrouille de l'aube</text></g><g><circle cx="826.5745399775751" cy="490" r="14.839294959021853"/><text transform="translate(826.5745399775751,509.83929495902186) rotate(-90)" alignment-baseline="middle" font-family="Helvetica, Arial, sans-serif" font-size="12" text-anchor="end">Academy Award for Best Story</text></g><g><circle cx="846.6184751781533" cy="490" r="14.839294959021853"/><text transform="translate(846.6184751781533,509.83929495902186) rotate(-90)" alignment-baseline="middle" font-family="Helvetica, Arial, sans-serif" font-size="12" text-anchor="end">The Last Tycoon</text></g><g><circle cx="884.8231154197097" cy="490" r="33"/><text transform="translate(884.8231154197097,528) rotate(-90)" alignment-baseline="middle" font-family="Helvetica, Arial, sans-serif" font-size="12" text-anchor="end">National Board of Review: Top Ten Films</text></g><g><circle cx="923.0277556612659" cy="490" r="14.839294959021853"/><text transform="translate(923.0277556612659,509.83929495902186) rotate(-90)" alignment-baseline="middle" font-family="Helvetica, Arial, sans-serif" font-size="12" text-anchor="end">Anatomy of a Murder</text></g><g><circle cx="943.0716908618441" cy="490" r="14.839294959021853"/><text transform="translate(943.0716908618441,509.83929495902186) rotate(-90)" alignment-baseline="middle" font-family="Helvetica, Arial, sans-serif" font-size="12" text-anchor="end">It's a Wonderful Life</text></g><g><circle cx="963.1156260624223" cy="490" r="14.839294959021853"/><text transform="translate(963.1156260624223,509.83929495902186) rotate(-90)" alignment-baseline="middle" font-family="Helvetica, Arial, sans-serif" font-size="12" text-anchor="end">The Last Temptation of Christ</text></g><g><circle cx="983.1595612630005" cy="490" r="14.839294959021853"/><text transform="translate(983.1595612630005,509.83929495902186) rotate(-90)" alignment-baseline="middle" font-family="Helvetica, Arial, sans-serif" font-size="12" text-anchor="end">The Shootist</text></g><g><circle cx="1012.8933979286011" cy="490" r="24.529196424044297"/><text transform="translate(1012.8933979286011,519.5291964240442) rotate(-90)" alignment-baseline="middle" font-family="Helvetica, Arial, sans-serif" font-size="12" text-anchor="end">Oscar et Lucinda</text></g><g><circle cx="1050.4665295532234" cy="490" r="22.67858991804371"/><text transform="translate(1050.4665295532234,517.6785899180437) rotate(-90)" alignment-baseline="middle" font-family="Helvetica, Arial, sans-serif" font-size="12" text-anchor="end">AACTA Award for Best Costume Design</text></g><g><circle cx="1084.088521918346" cy="490" r="20.578057164544433"/><text transform="translate(1084.088521918346,515.5780571645444) rotate(-90)" alignment-baseline="middle" font-family="Helvetica, Arial, sans-serif" font-size="12" text-anchor="end">AACTA Award for Best Original Music Score</text></g><g><circle cx="1115.6099815299692" cy="490" r="20.578057164544433"/><text transform="translate(1115.6099815299692,515.5780571645444) rotate(-90)" alignment-baseline="middle" font-family="Helvetica, Arial, sans-serif" font-size="12" text-anchor="end">AACTA Award for Best Cinematography</text></g><g><circle cx="1147.1314411415924" cy="490" r="20.578057164544433"/><text transform="translate(1147.1314411415924,515.5780571645444) rotate(-90)" alignment-baseline="middle" font-family="Helvetica, Arial, sans-serif" font-size="12" text-anchor="end">Bootmen</text></g><g><circle cx="1172.914138547693" cy="490" r="14.839294959021853"/><text transform="translate(1172.914138547693,509.83929495902186) rotate(-90)" alignment-baseline="middle" font-family="Helvetica, Arial, sans-serif" font-size="12" text-anchor="end">Beautiful Kate</text></g><g><circle cx="1200.797368707293" cy="490" r="22.67858991804371"/><text transform="translate(1200.797368707293,517.6785899180437) rotate(-90)" alignment-baseline="middle" font-family="Helvetica, Arial, sans-serif" font-size="12" text-anchor="end">AACTA Award for Best Actress in a Supporting Role</text></g><g><circle cx="1231.927741158363" cy="490" r="18.08643725049174"/><text transform="translate(1231.927741158363,513.0864372504917) rotate(-90)" alignment-baseline="middle" font-family="Helvetica, Arial, sans-serif" font-size="12" text-anchor="end">Kapringen</text></g><g><circle cx="1255.2188186504109" cy="490" r="14.839294959021853"/><text transform="translate(1255.2188186504109,509.83929495902186) rotate(-90)" alignment-baseline="middle" font-family="Helvetica, Arial, sans-serif" font-size="12" text-anchor="end">Bodil Award for Best Danish Film</text></g><g><circle cx="1275.262753850989" cy="490" r="14.839294959021853"/><text transform="translate(1275.262753850989,509.83929495902186) rotate(-90)" alignment-baseline="middle" font-family="Helvetica, Arial, sans-serif" font-size="12" text-anchor="end">Robert Award for Best Danish Film</text></g><g><circle cx="1298.553831343037" cy="490" r="18.08643725049174"/><text transform="translate(1298.553831343037,513.0864372504917) rotate(-90)" alignment-baseline="middle" font-family="Helvetica, Arial, sans-serif" font-size="12" text-anchor="end">올드보이</text></g><g><circle cx="1321.8449088350849" cy="490" r="14.839294959021853"/><text transform="translate(1321.8449088350849,509.83929495902186) rotate(-90)" alignment-baseline="middle" font-family="Helvetica, Arial, sans-serif" font-size="12" text-anchor="end">Sitges Film Festival Best Feature-Length Film award</text></g><g><circle cx="1341.888844035663" cy="490" r="14.839294959021853"/><text transform="translate(1341.888844035663,509.83929495902186) rotate(-90)" alignment-baseline="middle" font-family="Helvetica, Arial, sans-serif" font-size="12" text-anchor="end">Cannes Film Festival Grand Prix</text></g><g><circle cx="1361.932779236241" cy="490" r="14.839294959021853"/><text transform="translate(1361.932779236241,509.83929495902186) rotate(-90)" alignment-baseline="middle" font-family="Helvetica, Arial, sans-serif" font-size="12" text-anchor="end">Candy</text></g><g><circle cx="1385.223856728289" cy="490" r="18.08643725049174"/><text transform="translate(1385.223856728289,513.0864372504917) rotate(-90)" alignment-baseline="middle" font-family="Helvetica, Arial, sans-serif" font-size="12" text-anchor="end">AACTA Award for Best Adapted Screenplay</text></g><g><circle cx="1408.514934220337" cy="490" r="14.839294959021853"/><text transform="translate(1408.514934220337,509.83929495902186) rotate(-90)" alignment-baseline="middle" font-family="Helvetica, Arial, sans-serif" font-size="12" text-anchor="end">Bajo la sal</text></g><g><circle cx="1428.558869420915" cy="490" r="14.839294959021853"/><text transform="translate(1428.558869420915,509.83929495902186) rotate(-90)" alignment-baseline="middle" font-family="Helvetica, Arial, sans-serif" font-size="12" text-anchor="end">Ariel Award for Best Actress</text></g><g><circle cx="1451.849946912963" cy="490" r="18.08643725049174"/><text transform="translate(1451.849946912963,513.0864372504917) rotate(-90)" alignment-baseline="middle" font-family="Helvetica, Arial, sans-serif" font-size="12" text-anchor="end">AACTA Award for Best Actor in a Leading Role</text></g><g><circle cx="1475.141024405011" cy="490" r="14.839294959021853"/><text transform="translate(1475.141024405011,509.83929495902186) rotate(-90)" alignment-baseline="middle" font-family="Helvetica, Arial, sans-serif" font-size="12" text-anchor="end">Kenny</text></g><g><circle cx="1498.432101897059" cy="490" r="18.08643725049174"/><text transform="translate(1498.432101897059,513.0864372504917) rotate(-90)" alignment-baseline="middle" font-family="Helvetica, Arial, sans-serif" font-size="12" text-anchor="end">Limelight</text></g><g><circle cx="1521.723179389107" cy="490" r="14.839294959021853"/><text transform="translate(1521.723179389107,509.83929495902186) rotate(-90)" alignment-baseline="middle" font-family="Helvetica, Arial, sans-serif" font-size="12" text-anchor="end">Academy Award for Best Original Dramatic Score</text></g><g><circle cx="1554.6686445463172" cy="490" r="27.74082491565411"/><text transform="translate(1554.6686445463172,522.7408249156541) rotate(-90)" alignment-baseline="middle" font-family="Helvetica, Arial, sans-serif" font-size="12" text-anchor="end">All About Eve</text></g><g><circle cx="1587.6141097035277" cy="490" r="14.839294959021853"/><text transform="translate(1587.6141097035277,509.83929495902186) rotate(-90)" alignment-baseline="middle" font-family="Helvetica, Arial, sans-serif" font-size="12" text-anchor="end">Academy Award for Best Picture</text></g><g><circle cx="1607.6580449041057" cy="490" r="14.839294959021853"/><text transform="translate(1607.6580449041057,509.83929495902186) rotate(-90)" alignment-baseline="middle" font-family="Helvetica, Arial, sans-serif" font-size="12" text-anchor="end">Academy Award for Best Writing, Adapted Screenplay</text></g><g><circle cx="1627.7019801046838" cy="490" r="14.839294959021853"/><text transform="translate(1627.7019801046838,509.83929495902186) rotate(-90)" alignment-baseline="middle" font-family="Helvetica, Arial, sans-serif" font-size="12" text-anchor="end">Academy Award for Best Director</text></g><g><circle cx="1647.7459153052619" cy="490" r="14.839294959021853"/><text transform="translate(1647.7459153052619,509.83929495902186) rotate(-90)" alignment-baseline="middle" font-family="Helvetica, Arial, sans-serif" font-size="12" text-anchor="end">Academy Award for Best Sound</text></g><g><circle cx="1671.03699279731" cy="490" r="18.08643725049174"/><text transform="translate(1671.03699279731,513.0864372504917) rotate(-90)" alignment-baseline="middle" font-family="Helvetica, Arial, sans-serif" font-size="12" text-anchor="end">Academy Award for Best Supporting Actor</text></g><g><circle cx="1697.5752125808278" cy="490" r="18.08643725049174"/><text transform="translate(1697.5752125808278,513.0864372504917) rotate(-90)" alignment-baseline="middle" font-family="Helvetica, Arial, sans-serif" font-size="12" text-anchor="end">A Tree Grows in Brooklyn</text></g><g><circle cx="1724.1134323643457" cy="490" r="18.08643725049174"/><text transform="translate(1724.1134323643457,513.0864372504917) rotate(-90)" alignment-baseline="middle" font-family="Helvetica, Arial, sans-serif" font-size="12" text-anchor="end">功夫</text></g><g><circle cx="1747.4045098563936" cy="490" r="14.839294959021853"/><text transform="translate(1747.4045098563936,509.83929495902186) rotate(-90)" alignment-baseline="middle" font-family="Helvetica, Arial, sans-serif" font-size="12" text-anchor="end">Golden Horse Award for Best Feature Film</text></g><g><circle cx="1770.6955873484417" cy="490" r="18.08643725049174"/><text transform="translate(1770.6955873484417,513.0864372504917) rotate(-90)" alignment-baseline="middle" font-family="Helvetica, Arial, sans-serif" font-size="12" text-anchor="end">Hong Kong Film Award for Best Film</text></g><g><circle cx="1793.9866648404895" cy="490" r="14.839294959021853"/><text transform="translate(1793.9866648404895,509.83929495902186) rotate(-90)" alignment-baseline="middle" font-family="Helvetica, Arial, sans-serif" font-size="12" text-anchor="end">Chungking Express</text></g><g><circle cx="1817.2777423325376" cy="490" r="18.08643725049174"/><text transform="translate(1817.2777423325376,513.0864372504917) rotate(-90)" alignment-baseline="middle" font-family="Helvetica, Arial, sans-serif" font-size="12" text-anchor="end">Academy Award for Best Costume Design, Black-and-White</text></g><g><circle cx="1846.307582030108" cy="490" r="20.578057164544433"/><text transform="translate(1846.307582030108,515.5780571645444) rotate(-90)" alignment-baseline="middle" font-family="Helvetica, Arial, sans-serif" font-size="12" text-anchor="end">Roman Holiday</text></g><g><circle cx="1872.0902794362087" cy="490" r="14.839294959021853"/><text transform="translate(1872.0902794362087,509.83929495902186) rotate(-90)" alignment-baseline="middle" font-family="Helvetica, Arial, sans-serif" font-size="12" text-anchor="end">Academy Award for Best Actress</text></g><g><circle cx="1895.3813569282568" cy="490" r="18.08643725049174"/><text transform="translate(1895.3813569282568,513.0864372504917) rotate(-90)" alignment-baseline="middle" font-family="Helvetica, Arial, sans-serif" font-size="12" text-anchor="end">Intouchables</text></g><g><circle cx="1918.6724344203046" cy="490" r="14.839294959021853"/><text transform="translate(1918.6724344203046,509.83929495902186) rotate(-90)" alignment-baseline="middle" font-family="Helvetica, Arial, sans-serif" font-size="12" text-anchor="end">Satellite Award for Best Foreign Language Film</text></g><g><circle cx="1938.7163696208827" cy="490" r="14.839294959021853"/><text transform="translate(1938.7163696208827,509.83929495902186) rotate(-90)" alignment-baseline="middle" font-family="Helvetica, Arial, sans-serif" font-size="12" text-anchor="end">David di Donatello for Best European Film</text></g><g><circle cx="1958.7603048214607" cy="490" r="14.839294959021853"/><text transform="translate(1958.7603048214607,509.83929495902186) rotate(-90)" alignment-baseline="middle" font-family="Helvetica, Arial, sans-serif" font-size="12" text-anchor="end">This Is England</text></g><g><circle cx="1978.8042400220388" cy="490" r="14.839294959021853"/><text transform="translate(1978.8042400220388,509.83929495902186) rotate(-90)" alignment-baseline="middle" font-family="Helvetica, Arial, sans-serif" font-size="12" text-anchor="end">BAFTA Award for Best British Film</text></g><g><circle cx="2008.5380766876394" cy="490" r="24.529196424044297"/><text transform="translate(2008.5380766876394,519.5291964240442) rotate(-90)" alignment-baseline="middle" font-family="Helvetica, Arial, sans-serif" font-size="12" text-anchor="end">Looking for Alibrandi</text></g><g><circle cx="2038.2719133532398" cy="490" r="14.839294959021853"/><text transform="translate(2038.2719133532398,509.83929495902186) rotate(-90)" alignment-baseline="middle" font-family="Helvetica, Arial, sans-serif" font-size="12" text-anchor="end">AACTA Award for Best Actress in a Leading Role</text></g><g><circle cx="2058.315848553818" cy="490" r="14.839294959021853"/><text transform="translate(2058.315848553818,509.83929495902186) rotate(-90)" alignment-baseline="middle" font-family="Helvetica, Arial, sans-serif" font-size="12" text-anchor="end">Runaway Train</text></g><g><circle cx="2078.359783754396" cy="490" r="14.839294959021853"/><text transform="translate(2078.359783754396,509.83929495902186) rotate(-90)" alignment-baseline="middle" font-family="Helvetica, Arial, sans-serif" font-size="12" text-anchor="end">Golden Globe Award for Best Actor – Motion Picture Drama</text></g><g><circle cx="2106.243013913996" cy="490" r="22.67858991804371"/><text transform="translate(2106.243013913996,517.6785899180437) rotate(-90)" alignment-baseline="middle" font-family="Helvetica, Arial, sans-serif" font-size="12" text-anchor="end">The Hustler</text></g><g><circle cx="2134.1262440735964" cy="490" r="14.839294959021853"/><text transform="translate(2134.1262440735964,509.83929495902186) rotate(-90)" alignment-baseline="middle" font-family="Helvetica, Arial, sans-serif" font-size="12" text-anchor="end">Academy Award for Best Cinematography, Black-and-White</text></g><g><circle cx="2154.1701792741746" cy="490" r="14.839294959021853"/><text transform="translate(2154.1701792741746,509.83929495902186) rotate(-90)" alignment-baseline="middle" font-family="Helvetica, Arial, sans-serif" font-size="12" text-anchor="end">Academy Award for Best Art Direction, Black and White</text></g><g><circle cx="2174.214114474753" cy="490" r="14.839294959021853"/><text transform="translate(2174.214114474753,509.83929495902186) rotate(-90)" alignment-baseline="middle" font-family="Helvetica, Arial, sans-serif" font-size="12" text-anchor="end">BAFTA Award for Best Film</text></g><g><circle cx="2197.505191966801" cy="490" r="18.08643725049174"/><text transform="translate(2197.505191966801,513.0864372504917) rotate(-90)" alignment-baseline="middle" font-family="Helvetica, Arial, sans-serif" font-size="12" text-anchor="end">État de siège</text></g><g><circle cx="2220.796269458849" cy="490" r="14.839294959021853"/><text transform="translate(2220.796269458849,509.83929495902186) rotate(-90)" alignment-baseline="middle" font-family="Helvetica, Arial, sans-serif" font-size="12" text-anchor="end">Louis Delluc Prize</text></g><g><circle cx="2240.8402046594274" cy="490" r="14.839294959021853"/><text transform="translate(2240.8402046594274,509.83929495902186) rotate(-90)" alignment-baseline="middle" font-family="Helvetica, Arial, sans-serif" font-size="12" text-anchor="end">British Academy Film Awards</text></g><g><circle cx="2264.1312821514753" cy="490" r="18.08643725049174"/><text transform="translate(2264.1312821514753,513.0864372504917) rotate(-90)" alignment-baseline="middle" font-family="Helvetica, Arial, sans-serif" font-size="12" text-anchor="end">The Death of Stalin</text></g><g><circle cx="2287.4223596435236" cy="490" r="14.839294959021853"/><text transform="translate(2287.4223596435236,509.83929495902186) rotate(-90)" alignment-baseline="middle" font-family="Helvetica, Arial, sans-serif" font-size="12" text-anchor="end">British Independent Film Awards</text></g><g><circle cx="2307.466294844102" cy="490" r="14.839294959021853"/><text transform="translate(2307.466294844102,509.83929495902186) rotate(-90)" alignment-baseline="middle" font-family="Helvetica, Arial, sans-serif" font-size="12" text-anchor="end">European Film Award for Best Comedy</text></g><g><circle cx="2338.873207678434" cy="490" r="26.202272592775905"/><text transform="translate(2338.873207678434,521.2022725927759) rotate(-90)" alignment-baseline="middle" font-family="Helvetica, Arial, sans-serif" font-size="12" text-anchor="end">Aftersun</text></g><g><circle cx="2370.280120512766" cy="490" r="14.839294959021853"/><text transform="translate(2370.280120512766,509.83929495902186) rotate(-90)" alignment-baseline="middle" font-family="Helvetica, Arial, sans-serif" font-size="12" text-anchor="end">BAFTA Award for Best Newcomer</text></g><g><circle cx="2390.3240557133445" cy="490" r="14.839294959021853"/><text transform="translate(2390.3240557133445,509.83929495902186) rotate(-90)" alignment-baseline="middle" font-family="Helvetica, Arial, sans-serif" font-size="12" text-anchor="end">National Board of Review Award for Best Directorial Debut</text></g><g><circle cx="2410.3679909139228" cy="490" r="14.839294959021853"/><text transform="translate(2410.3679909139228,509.83929495902186) rotate(-90)" alignment-baseline="middle" font-family="Helvetica, Arial, sans-serif" font-size="12" text-anchor="end">New York Film Critics Circle Awards</text></g><g><circle cx="2430.411926114501" cy="490" r="14.839294959021853"/><text transform="translate(2430.411926114501,509.83929495902186) rotate(-90)" alignment-baseline="middle" font-family="Helvetica, Arial, sans-serif" font-size="12" text-anchor="end">Independent Spirit Award for Best First Feature</text></g><g><circle cx="2450.4558613150793" cy="490" r="14.839294959021853"/><text transform="translate(2450.4558613150793,509.83929495902186) rotate(-90)" alignment-baseline="middle" font-family="Helvetica, Arial, sans-serif" font-size="12" text-anchor="end">Streets of Fire</text></g><g><circle cx="2470.4997965156576" cy="490" r="14.839294959021853"/><text transform="translate(2470.4997965156576,509.83929495902186) rotate(-90)" alignment-baseline="middle" font-family="Helvetica, Arial, sans-serif" font-size="12" text-anchor="end">Sitges Film Festival Best Actress award</text></g><g><circle cx="2490.543731716236" cy="490" r="14.839294959021853"/><text transform="translate(2490.543731716236,509.83929495902186) rotate(-90)" alignment-baseline="middle" font-family="Helvetica, Arial, sans-serif" font-size="12" text-anchor="end">Cinderella</text></g><g><circle cx="2510.587666916814" cy="490" r="14.839294959021853"/><text transform="translate(2510.587666916814,509.83929495902186) rotate(-90)" alignment-baseline="middle" font-family="Helvetica, Arial, sans-serif" font-size="12" text-anchor="end">Saturn Award for Best Fantasy Film</text></g><g><circle cx="2530.6316021173925" cy="490" r="14.839294959021853"/><text transform="translate(2530.6316021173925,509.83929495902186) rotate(-90)" alignment-baseline="middle" font-family="Helvetica, Arial, sans-serif" font-size="12" text-anchor="end">Las brujas de Zugarramurdi</text></g><g><circle cx="2550.675537317971" cy="490" r="14.839294959021853"/><text transform="translate(2550.675537317971,509.83929495902186) rotate(-90)" alignment-baseline="middle" font-family="Helvetica, Arial, sans-serif" font-size="12" text-anchor="end">Goya Award for Best Sound</text></g><g><circle cx="2570.719472518549" cy="490" r="14.839294959021853"/><text transform="translate(2570.719472518549,509.83929495902186) rotate(-90)" alignment-baseline="middle" font-family="Helvetica, Arial, sans-serif" font-size="12" text-anchor="end">Three thieves</text></g><g><circle cx="2590.7634077191274" cy="490" r="14.839294959021853"/><text transform="translate(2590.7634077191274,509.83929495902186) rotate(-90)" alignment-baseline="middle" font-family="Helvetica, Arial, sans-serif" font-size="12" text-anchor="end">Africa Magic Viewers' Choice Awards</text></g><g><circle cx="2614.0544852111752" cy="490" r="18.08643725049174"/><text transform="translate(2614.0544852111752,513.0864372504917) rotate(-90)" alignment-baseline="middle" font-family="Helvetica, Arial, sans-serif" font-size="12" text-anchor="end">Grand prix du Festival de Deauville</text></g><g><circle cx="2637.3455627032235" cy="490" r="14.839294959021853"/><text transform="translate(2637.3455627032235,509.83929495902186) rotate(-90)" alignment-baseline="middle" font-family="Helvetica, Arial, sans-serif" font-size="12" text-anchor="end">Raising Victor Vargas</text></g><g><circle cx="2657.389497903802" cy="490" r="14.839294959021853"/><text transform="translate(2657.389497903802,509.83929495902186) rotate(-90)" alignment-baseline="middle" font-family="Helvetica, Arial, sans-serif" font-size="12" text-anchor="end">Heaven's Gate</text></g><g><circle cx="2677.43343310438" cy="490" r="14.839294959021853"/><text transform="translate(2677.43343310438,509.83929495902186) rotate(-90)" alignment-baseline="middle" font-family="Helvetica, Arial, sans-serif" font-size="12" text-anchor="end">Golden Raspberry Award for Worst Director</text></g><g><circle cx="2697.4773683049584" cy="490" r="14.839294959021853"/><text transform="translate(2697.4773683049584,509.83929495902186) rotate(-90)" alignment-baseline="middle" font-family="Helvetica, Arial, sans-serif" font-size="12" text-anchor="end">La meglio gioventù</text></g><g><circle cx="2717.5213035055367" cy="490" r="14.839294959021853"/><text transform="translate(2717.5213035055367,509.83929495902186) rotate(-90)" alignment-baseline="middle" font-family="Helvetica, Arial, sans-serif" font-size="12" text-anchor="end">David di Donatello for Best Film</text></g><g><circle cx="2745.4045336651366" cy="490" r="22.67858991804371"/><text transform="translate(2745.4045336651366,517.6785899180437) rotate(-90)" alignment-baseline="middle" font-family="Helvetica, Arial, sans-serif" font-size="12" text-anchor="end">Der Himmel über Berlin</text></g><g><circle cx="2773.287763824737" cy="490" r="14.839294959021853"/><text transform="translate(2773.287763824737,509.83929495902186) rotate(-90)" alignment-baseline="middle" font-family="Helvetica, Arial, sans-serif" font-size="12" text-anchor="end">Independent Spirit Awards</text></g><g><circle cx="2793.331699025315" cy="490" r="14.839294959021853"/><text transform="translate(2793.331699025315,509.83929495902186) rotate(-90)" alignment-baseline="middle" font-family="Helvetica, Arial, sans-serif" font-size="12" text-anchor="end">European Film Award for Best Director</text></g><g><circle cx="2813.3756342258935" cy="490" r="14.839294959021853"/><text transform="translate(2813.3756342258935,509.83929495902186) rotate(-90)" alignment-baseline="middle" font-family="Helvetica, Arial, sans-serif" font-size="12" text-anchor="end">European Film Award for Best Supporting Actor</text></g><g><circle cx="2833.4195694264718" cy="490" r="14.839294959021853"/><text transform="translate(2833.4195694264718,509.83929495902186) rotate(-90)" alignment-baseline="middle" font-family="Helvetica, Arial, sans-serif" font-size="12" text-anchor="end">Kurd Lasswitz Award for best foreign work</text></g><g><circle cx="2853.46350462705" cy="490" r="14.839294959021853"/><text transform="translate(2853.46350462705,509.83929495902186) rotate(-90)" alignment-baseline="middle" font-family="Helvetica, Arial, sans-serif" font-size="12" text-anchor="end">Naked Lunch</text></g><g><circle cx="2873.5074398276283" cy="490" r="14.839294959021853"/><text transform="translate(2873.5074398276283,509.83929495902186) rotate(-90)" alignment-baseline="middle" font-family="Helvetica, Arial, sans-serif" font-size="12" text-anchor="end">Academy of Canadian Cinema and Television Award for Best Motion Picture</text></g><g><circle cx="2899.290137233729" cy="490" r="20.578057164544433"/><text transform="translate(2899.290137233729,515.5780571645444) rotate(-90)" alignment-baseline="middle" font-family="Helvetica, Arial, sans-serif" font-size="12" text-anchor="end">花樣年華</text></g><g><circle cx="2925.07283463983" cy="490" r="14.839294959021853"/><text transform="translate(2925.07283463983,509.83929495902186) rotate(-90)" alignment-baseline="middle" font-family="Helvetica, Arial, sans-serif" font-size="12" text-anchor="end">National Society of Film Critics Award for Best Cinematography</text></g><g><circle cx="2945.1167698404083" cy="490" r="14.839294959021853"/><text transform="translate(2945.1167698404083,509.83929495902186) rotate(-90)" alignment-baseline="middle" font-family="Helvetica, Arial, sans-serif" font-size="12" text-anchor="end">Hong Kong Film Award for Best Actress</text></g><g><circle cx="2965.1607050409866" cy="490" r="14.839294959021853"/><text transform="translate(2965.1607050409866,509.83929495902186) rotate(-90)" alignment-baseline="middle" font-family="Helvetica, Arial, sans-serif" font-size="12" text-anchor="end">German Film Award for Best No-German Film</text></g></g></g></svg>